<svg id="Слой_1" data-name="Слой 1" xmlns="http://www.w3.org/2000/svg" xmlns:xlink="http://www.w3.org/1999/xlink" viewBox="0 0 3005.82 2000"><defs><style>.cls-1{fill:#bbd070;}.cls-2{fill:#97a43c;}.cls-3{fill:#48753a;}.cls-4{fill:#ebebeb;}.cls-5{fill:#c61a1a;}.cls-6{fill:#004e8c;}.cls-7{fill:#f0f0f0;}.cls-8{fill:#ffdf69;}.cls-9{fill:#13405e;}.cls-10{fill:#4ba2f4;}.cls-11{fill:#375eab;}.cls-12{fill:#c9c9c9;}.cls-13{fill:#fff;}.cls-14{fill:#eea886;}.cls-15{fill:#202338;}.cls-16{fill:#81807e;}.cls-17{fill:#292c47;}.cls-18{fill:#dbd8e3;}.cls-19{fill:#1d2033;}.cls-20{fill:#323657;}.cls-21{fill:#eea987;}.cls-22{fill:#d44040;}.cls-23{fill:#c4c1cc;}.cls-24{fill:#3a4066;}.cls-25{fill:#a77860;}.cls-26{fill:#666fb3;}.cls-27{fill:#2d314f;}.cls-28{fill:#b8b8b8;}.cls-29{fill:#d88a51;}.cls-30{fill:#c26c23;}.cls-31{fill:url(#linear-gradient);}.cls-32{fill:#e3f2ff;}.cls-33{fill:#ffb255;}.cls-34{fill:#ffb555;}.cls-35{fill:#ffb455;}.cls-36{fill:#0e2d3d;}.cls-37{fill:#ffcb55;}.cls-38{fill:#163342;}.cls-39{fill:#1d3b54;}.cls-40{fill:#285173;}.cls-41{fill:#ffbf55;}.cls-42{fill:#183c59;}.cls-43{fill:#616161;}.cls-44{fill:#e0cec7;}.cls-45{fill:#e2d2ca;}.cls-46{fill:#706865;}.cls-47{fill:#ccbdb7;}.cls-48{fill:#b59074;}.cls-49{fill:#ead8cf;}.cls-50{fill:#da9b5b;}.cls-51{fill:#424773;}.cls-52{fill:#3a3f47;}.cls-53{fill:#918783;}.cls-54{fill:#5e5854;}.cls-55{fill:#bfb2ac;}.cls-56{fill:#f2e2d9;}.cls-57{fill:#f5f7ff;}.cls-58{fill:#918681;}.cls-59{fill:#dfe1e8;}.cls-60{fill:#ab9546;}</style><linearGradient id="linear-gradient" x1="933.38" y1="1650.08" x2="570.39" y2="1287.08" gradientUnits="userSpaceOnUse"><stop offset="0" stop-color="#ff9f55"/><stop offset="1" stop-color="#ffd255"/></linearGradient></defs><path class="cls-1" d="M223.62,640.73s169.45-72.82,234.9,25.87-26.24,92.55-26.24,92.55-5.09,45.64-91.65-62.36C299.84,645.89,223.62,640.73,223.62,640.73Z"/><path class="cls-2" d="M194.06,359.38s150.43-46.65,249.46,144.14S631.59,709.4,631.59,709.4,291.38,770.45,194.06,359.38Z"/><path class="cls-3" d="M569,720.41c-13.17,63.44-158.37-58.88-172.66-168.57s14.17-190.17-14.69-260.54C381.69,291.3,633.91,408.05,569,720.41Z"/><path class="cls-4" d="M608.32,402.66a58.18,58.18,0,0,0-17,2.5c-7-16.87-24.24-28.82-44.46-28.82-22.47,0-41.31,14.76-46.38,34.65A35.34,35.34,0,0,0,488,408.71c-18.71,0-33.88,14.41-33.88,32.2H656C656,419.79,634.68,402.66,608.32,402.66Z"/><path class="cls-4" d="M309.07,529.87a44.31,44.31,0,0,0-12.95,1.9c-5.31-12.86-18.48-22-33.9-22-17.13,0-31.5,11.26-35.36,26.42a27,27,0,0,0-9.57-1.74c-14.26,0-25.83,11-25.83,24.55h154C345.46,542.93,329.17,529.87,309.07,529.87Z"/><rect class="cls-5" x="333.93" y="531.87" width="1993.58" height="1183.24" rx="83.79"/><rect class="cls-6" x="406.59" y="880.13" width="245.98" height="245.98"/><rect class="cls-7" x="406.59" y="615.28" width="245.98" height="245.98"/><rect class="cls-7" x="671.26" y="615.28" width="245.98" height="245.98"/><rect class="cls-7" x="1087.27" y="878.97" width="245.98" height="245.98"/><rect class="cls-6" x="1351.95" y="878.97" width="245.98" height="245.98"/><rect class="cls-7" x="671.26" y="1143.64" width="245.98" height="245.98"/><rect class="cls-8" x="671.26" y="1408.32" width="245.98" height="245.98"/><rect class="cls-7" x="1087.27" y="1408.32" width="245.98" height="245.98"/><rect class="cls-7" x="406.59" y="1144.23" width="245.98" height="245.98"/><path class="cls-6" d="M1597.91,1408.32s-.17,113.86-26.86,210.38l-56.88,35.6H1313.6c38.11-101.4,38.34-246,38.34-246Z"/><polygon class="cls-9" points="1514.17 1654.3 1514.17 1617.88 1571.05 1617.88 1514.17 1654.3"/><path class="cls-10" d="M1333.24,1143.64s-.17,113.86-26.86,210.37l-56.89,35.61H1048.93c38.1-101.41,38.33-246,38.33-246Z"/><polygon class="cls-11" points="1249.49 1389.62 1249.49 1353.19 1306.38 1353.19 1249.49 1389.62"/><rect class="cls-7" x="1351.95" y="615.46" width="245.98" height="245.98"/><path class="cls-6" d="M1333.24,615.46s-.17,113.86-26.86,210.38l-56.89,35.6H1048.93c38.1-101.41,38.33-246,38.33-246Z"/><polygon class="cls-9" points="1249.49 861.44 1249.49 825.01 1306.38 825.01 1249.49 861.44"/><path class="cls-7" d="M652.55,1408.32s-.17,113.86-26.86,210.38l-56.88,35.6H368.24c38.1-101.4,38.33-246,38.33-246Z"/><polygon class="cls-12" points="568.81 1654.3 568.81 1617.88 625.69 1617.88 568.81 1654.3"/><rect class="cls-6" x="1752.56" y="880.13" width="245.98" height="245.98"/><rect class="cls-7" x="1752.56" y="615.28" width="245.98" height="245.98"/><rect class="cls-7" x="2017.23" y="615.28" width="245.98" height="245.98"/><rect class="cls-7" x="2017.23" y="1143.64" width="245.98" height="245.98"/><rect class="cls-6" x="2017.23" y="1408.32" width="245.98" height="245.98"/><rect class="cls-7" x="1752.56" y="1144.23" width="245.98" height="245.98"/><path class="cls-7" d="M1998.53,1408.32s-.18,113.86-26.86,210.38l-56.89,35.6H1714.21c38.11-101.4,38.34-246,38.34-246Z"/><polygon class="cls-12" points="1914.78 1654.3 1914.78 1617.88 1971.67 1617.88 1914.78 1654.3"/><path class="cls-7" d="M1597.91,1143.64s-.17,113.86-26.86,210.37l-56.88,35.61H1313.6c38.11-101.41,38.34-246,38.34-246Z"/><polygon class="cls-12" points="1514.17 1389.62 1514.17 1353.19 1571.05 1353.19 1514.17 1389.62"/><rect class="cls-13" x="988.99" y="531.87" width="14.53" height="1183.23"/><rect class="cls-13" x="1668.04" y="531.87" width="14.4" height="1183.24"/><path class="cls-14" d="M1956.49,1309.07s-7.66-3-8.21-7.87c-.47-4.11-3.88-9.21-4.92-10.78-1.41-2.1-3.49-10.12-5.95-8.41s2.85,13.37,3.51,16-9.8-3-12.41-2.49-9.74,18.84-2.18,21.88,17.31,1.1,18.56,1.91a51,51,0,0,0,5.43,2.43Z"/><path class="cls-15" d="M2155.38,1798.6s5.32,9.84,8.8,13.74,16.79,10.89,16.86,22.49c.08,12.59-22.44,9.09-31.25,8.63s-9.48-7.18-13.19-14.3-7.45-5.92-8.14-11.66,3.59-18.9,3.59-18.9Z"/><path class="cls-15" d="M2021.27,1797.45s-10.86,12-21.88,14.53-18.73,5.73-18.81,12.62,31.72,11.44,44.33,4.49c18.82-10.38,20.74-7.25,22.82-12.43s-2.5-19.05-2.37-20.7C2045.53,1793.92,2021.27,1797.45,2021.27,1797.45Z"/><path class="cls-16" d="M2022.49,1791.7s-1.43,5.63-1.22,5.75,24.84,3,24.09-1.49c-.6-3.66-1.46-7.64-1.46-7.64Z"/><path class="cls-16" d="M2132.35,1794.8s-1,5.37-.83,5.5,25,4.51,24.83,0a21.4,21.4,0,0,0-2.28-7.67Z"/><path class="cls-17" d="M2044.88,1454.82s-9,86.18-13.61,115.69c-5.45,34.5-7.29,63-8.81,80.86-1.91,22.46-2.28,132.93-3.62,139.5s29.66,1.81,29.66,1.81,15.25-144.35,20.94-168.26c5.3-22.27,25-118.16,29.79-112.08s10.83,111.9,14.41,129.46,14.46,155.08,14.46,155.08,24.67,4.87,31.23-.64c0,0,3-118.5.71-151.44-.87-12.55,14.84-150.47-5.3-206C2144.09,1409.46,2044.88,1454.82,2044.88,1454.82Z"/><path class="cls-18" d="M2210.71,1360.41c5.2,14.22-42.53,49.83-36.59,50.92s5.67,12.35,5.67,12.35,45-39.15,44-50.68c-.51-6.41-35.7-99.51-41.08-103.36-3.67-2.63-26.68-11.86-38.62-16.39-5.52-2.1-9.73-3.57-10.59-3.62-2.74-.17-36.41,3-36.41,3s-4.83,1.66-9.76,3.92c-8.42,3.87-21.55,9.91-31,14.4-3,1.45-6.85,3.41-10,5.08q.59,17.16,2,36.82s1.76,28.66,1.92,57.59c1.51,6.55,1.25,21.77,1.25,21.77.41,14.44-1.2,29.27-1.61,37.55-.67,13-2.46,31.57-2.46,31.57l16.38,6.68,71.73-.67,22.45-6s-1.33-57.68-1-74.45c.32-16.15,3.72-58.11,4.38-60.54C2161.44,1326.39,2185.49,1291.46,2210.71,1360.41Z"/><path class="cls-19" d="M2049.67,1455.26s49.27,4.19,92.42,0v14.16s-64.26,6.14-94.59-2.7Z"/><path class="cls-20" d="M2045.58,1275.87c.38,11.63,1,24.11,1.94,37.47,0,0,.93,32.63,2.81,63.58a61.45,61.45,0,0,1,.6,13.6c-.47,6-1.12,12.66-1.92,19.55a2.11,2.11,0,0,1,0,.26c-.19,1.64-.39,3.29-.59,5,0,0,0,0,0,.07-4.19,34.48-11.28,74-15,86-.79,2.5,1.91,4.82,3.84,6.6l13.47,8.49s5.56-51.15,7.4-68.51c1.78-16.76,7.38-39.22,9.84-61.12h0c3.11-27.78,7.39-55,9.7-71.15,6-42.09,14-60.92,14-60.92C2087.86,1255.88,2045.58,1275.87,2045.58,1275.87Z"/><path class="cls-20" d="M2206,1356.73c5.84,12.81-37,52-36.53,53.28,2.91,7.7,14.07,21.8,14.07,21.8s66.41-71.33,65.53-80.11c-.64-6.4-56.3-77.48-61.68-81.33-3.1-2.23-26.1-10.38-37.38-14.83-2.07-.82-8.79-3.35-10.64-4-2.39,2.66-19.21,20.76-25,89.55-1,11.6,2.12,36.15,4.19,56.19,2.21,21.39,4.66,38.07,6.45,56,3.54,35.23,6,63.26,6,63.26l35.06-15.61c5.67-2.84,15.48-10.24,13.35-16.22-8.11-22.7-20.27-65.72-20.28-85.64,0,0,9.27-66.55,12.37-77.27C2171.5,1321.7,2199.48,1342.4,2206,1356.73Z"/><path class="cls-21" d="M2130.42,1253.21s.23-11.56,4.68-34.94c1.19-6.26-36.34,16.47-36.34,16.47s.12,2.19.19,5.15c0,1.56.07,3.34.06,5.12,0,.63,0,1.25,0,1.87,0,1.65-.11,3.24-.25,4.58a21.5,21.5,0,0,1-1.25,4.51C2095.93,1259.54,2117.78,1262.25,2130.42,1253.21Z"/><path class="cls-22" d="M2107,1265.32l-6.22,8.36s3.64,4.88,10.12,1.28Z"/><path class="cls-22" d="M2102.43,1274s-23.59,90.85-18.73,161.56l7.94,14,7.43-14.65s2-126.5,8.51-161.13Z"/><path class="cls-21" d="M2100.33,1257.53l6.66,7.79s10.69-2.07,13.83-7.66S2100.33,1257.53,2100.33,1257.53Z"/><path class="cls-23" d="M2098.8,1250.71s.77,5.94,8.19,14.61l-8.09,10.87-4.39-22.56Z"/><path class="cls-23" d="M2131,1245.05s-13.23,16-24,20.27l5,12.43,25.16-27Z"/><path class="cls-20" d="M1936.6,1322.05s57,62,70.49,58.64c6.22-1.53,15.64-12.27,23.43-22.36,2.57-3.33,5.08-6.82,7.48-10.27v0c9.55-13.79,17-27,17-27s28.23-33.09,5.57-47.85c0,0-9.55-1-15,3-5,3.7-17.22,27-19.2,31.31s-17.39,34.76-18.82,35.66S1991,1335,1983,1329.58c-13.07-8.8-29.49-24.14-29.49-24.14Z"/><rect class="cls-24" x="2086" y="1456.01" width="23.04" height="17.48" transform="translate(4195.04 2929.5) rotate(180)"/><path class="cls-25" d="M2099,1245c0,.63,0,1.25,0,1.87,21.47-7.21,25.63-18.05,25.63-18.05-6.7,4.73-25.66,11.06-25.66,11.06C2099,1241.45,2099,1243.23,2099,1245Z"/><path class="cls-14" d="M2177.23,1409.77a7.53,7.53,0,0,1-4.18,1.68c-3.72,0-8-4.07-11.83-.4s4.29,19.28,7.24,21.11,9.64-1.46,16.8-10.12S2177.23,1409.77,2177.23,1409.77Z"/><path class="cls-14" d="M2162.7,1410a154.54,154.54,0,0,0-15.53,6.49c-7,3.43-15.27,8.67-14.43,10.45,1.28,2.7,7.55-2.37,14.74-5.3,6.63-2.69,5.78-1,5.78-1s.21-.48-6.43,3.88c-7.15,4.68-14.63,10-14,11.48.82,1.83,1.08,2,3.95.71-1.49,1.09-1.41,1.66-1,2.34,2,3.48,13.63-1.74,18.23-3.82-3.52,1.61-5.93,3.18-3.3,4.51,3,1.51,19.05-6.63,25.07-9C2182.37,1428.15,2162.7,1410,2162.7,1410Z"/><path class="cls-20" d="M2169.49,1410s1.63,9.56,14.07,21.8c0,0,28.52-31.47,33.61-37.36l-22.31-13Z"/><path class="cls-14" d="M2089.71,1174.9s-11.58,12.95-8.15,16.21c2.83,2.7-7.79,15.59-9.29,17.75s5,5.53,6.06,7.42.92,21.8,6.45,23.72,33.19-.86,41.88-6.43,22.18-36.87,20.83-51.75S2110.06,1152.3,2089.71,1174.9Z"/><path class="cls-20" d="M2087.34,1177.74s-4.36-18,13.36-26.38,40.14,19.1,43,20.63,20.15,6.93,3.94,35.61c-13.91,24.62-15.24,25.48-15.24,25.48s-2-16.68-4.68-19.78c-4.15-4.84-15.37-6.6-15.37-6.6s8.58-12.67.85-16.6S2096.37,1176.64,2087.34,1177.74Z"/><path class="cls-14" d="M2123,1200.81c1.18-1.73,5.48-9.39,11.37-2.88s-9.23,19.25-10.51,19.15S2113.11,1215.44,2123,1200.81Z"/><path class="cls-26" d="M1903.42,1373.36s-3.45,13.54-3.92,15.58-21.7-3.58-21.7-3.58l0-16.56S1900.93,1371.13,1903.42,1373.36Z"/><path class="cls-27" d="M1899.92,1387.21s5.95,9,12.17,13.36,30.25,9.92,33.76,14.08c2.53,3,6.06,14.38-32.49,9.19-27.39-3.69-40.9-2.76-43.37-7.53s7.81-32.43,7.81-32.43S1883.66,1387.07,1899.92,1387.21Z"/><rect class="cls-28" x="1471.74" y="1430.71" width="926.82" height="9.74" transform="matrix(0.1, -1, 1, 0.1, 318.95, 3222.64)"/><rect class="cls-28" x="1314.87" y="1415.49" width="926.82" height="9.74" transform="translate(192.43 3052.77) rotate(-84.44)"/><rect class="cls-28" x="1894.94" y="905.99" width="9.74" height="157.6" transform="translate(736.26 2780.68) rotate(-84.46)"/><rect class="cls-28" x="1887.86" y="978.93" width="9.74" height="157.6" transform="translate(657.09 2839.41) rotate(-84.46)"/><rect class="cls-28" x="1880.78" y="1051.87" width="9.74" height="157.6" transform="translate(578.25 2898.38) rotate(-84.46)"/><rect class="cls-28" x="1873.7" y="1124.81" width="9.74" height="157.6" transform="translate(499.25 2957.23) rotate(-84.46)"/><rect class="cls-28" x="1866.62" y="1197.75" width="9.74" height="157.6" transform="translate(420.08 3015.94) rotate(-84.46)"/><rect class="cls-28" x="1859.54" y="1270.69" width="9.74" height="157.6" transform="matrix(0.1, -1, 1, 0.1, 341.26, 3074.95)"/><rect class="cls-28" x="1852.47" y="1343.64" width="9.74" height="157.6" transform="translate(262.09 3133.64) rotate(-84.46)"/><rect class="cls-28" x="1845.39" y="1416.58" width="9.74" height="157.6" transform="translate(183.12 3192.5) rotate(-84.46)"/><rect class="cls-28" x="1838.31" y="1489.52" width="9.74" height="157.6" transform="translate(104.12 3251.35) rotate(-84.46)"/><rect class="cls-28" x="1831.23" y="1562.46" width="9.74" height="157.6" transform="translate(25.13 3310.2) rotate(-84.46)"/><rect class="cls-28" x="1824.15" y="1635.4" width="9.74" height="157.6" transform="translate(-53.87 3369.05) rotate(-84.46)"/><rect class="cls-28" x="1817.07" y="1708.34" width="9.74" height="157.6" transform="translate(-132.69 3428.1) rotate(-84.46)"/><rect class="cls-28" x="1809.99" y="1781.28" width="9.74" height="157.6" transform="translate(-211.88 3486.72) rotate(-84.46)"/><path class="cls-14" d="M2111,846a14.26,14.26,0,0,1-3.41,3.14s-2.65,1-4.49,1.83a12.51,12.51,0,0,0-1.39.7,26.72,26.72,0,0,1-7.51,4c-3.63,1-20,4.78-20,4.78l-3.81-9.73-2.74-7.86s15.18-19.67,18.45-21a7.68,7.68,0,0,1,.95-.33c2.88-.89,5.39-.34,7-.63.57-.11,6.36-.76,7.61.45a5.69,5.69,0,0,1,2,5.17s3.26,3.42,3.5,6.6c0,0,3.11,3.07,2.28,7.1C2109.31,840.11,2112.11,843.58,2111,846Z"/><path class="cls-10" d="M1935.19,973.57c3.79-2.44,8.69-5.75,25.65-14.23,31.59-15.81,70.59-44.45,78-48.59,11.4-6.36,47.41-50.37,47.41-50.37-1.85-6.63-18.93-19.93-18.93-19.93s-54.6,51.72-66.54,58.09c-10.26,5.47-61,11-74.91,12.43l-3.56.37C1907.73,931.22,1927,978.81,1935.19,973.57Z"/><path class="cls-27" d="M1929.62,1088.22s15.45,57.38,19.52,77.89c3.55,17.87,10.69,65.47,11.7,76.78s-45.61,120.85-50.46,140.63l-42.48-6.82s44.82-114,33.13-139.33c-17.39-37.67-19.65-36.54-33.35-67.57s-45.06-31.77-53.48-89.36C1814.2,1080.44,1918.21,1070,1929.62,1088.22Z"/><path class="cls-14" d="M1854.08,809.45s28.2-10.54,41.21,10.94,11.75,64.46-2.47,69.74-35.57,2.52-42.85-10.91-13.85-32.86-13.54-45.84S1846.67,813.2,1854.08,809.45Z"/><path class="cls-14" d="M1888.09,888.81s-1.14,7.4.74,11-35.48,3.74-35.48,3.74-3-19.82-8.78-36.55S1888.09,888.81,1888.09,888.81Z"/><path class="cls-29" d="M1844.57,867s2.58,4.25,13.11,2.6S1881,854,1885.44,852.45s4.43-4.12,4.43-4.12l2.76,4,4.66.29s-4.25-12.53,2.17-17.64-6.67-40.54-40.42-28.74c0,0-25.93,7.14-25,21.89S1838.77,859.69,1844.57,867Z"/><path class="cls-14" d="M1889.18,843c-.59-2.47-6.88-9.54-9.29-2s3.64,17.75,7,16.88S1890.67,849.23,1889.18,843Z"/><path class="cls-10" d="M1781.59,996.66c.31,3.7,4.54,7.7,7.42,9.68a12,12,0,0,0,6.43,2.12l1.68,0h0l29.31,1s21.79-70.43-19.08-97.29C1806.08,912.35,1778.76,962.71,1781.59,996.66Z"/><path class="cls-27" d="M1870,1416.31c2.47,4.77,16,3.84,43.37,7.53a126.59,126.59,0,0,0,18,1.33l1.59-16.48c-8-2.79-17.32-5.66-20.87-8.12-6.22-4.33-12.17-13.36-12.17-13.36-16.26-.14-22.12-3.33-22.12-3.33S1867.53,1411.53,1870,1416.31Z"/><path class="cls-10" d="M1888.11,897.7s-23-5.35-36-1l-2,1.81s-3.94,7.55,10.89,8.2S1899.23,908.47,1888.11,897.7Z"/><path class="cls-26" d="M1798.22,1436.69s-3.44,13.54-3.91,15.58-21.7-3.57-21.7-3.57l0-16.57S1795.74,1434.46,1798.22,1436.69Z"/><path class="cls-27" d="M1814.2,1080.44s-7.74,31.94-10,63.91c-2.12,29.55-6,62-9,92.86-3.42,34.45-13.17,90.14-13.68,108.57s-16,99-16,99l39.68,4.55S1830.89,1307,1837,1292.43s36.28-118.27,37.29-129.91S1814.2,1080.44,1814.2,1080.44Z"/><path class="cls-27" d="M1794.73,1450.55s5.94,9,12.17,13.35,30.25,9.92,33.75,14.08c2.54,3,6.06,14.38-32.49,9.19-27.39-3.69-40.9-2.76-43.36-7.53s7.81-32.43,7.81-32.43S1778.47,1450.4,1794.73,1450.55Z"/><path class="cls-10" d="M1937.64,1159.89c3.38-.48-8.39-101.22-7.49-107.54.6-4.21.51-36.95.26-57.36l3.68-20.65a94.91,94.91,0,0,1,8.09-5.11c5.12-3,11.53-6.33,18.66-9.89-.82-4.88-1.4-8.72-1.62-11-1.78-18.14-14-27.75-20.88-31.8a34.1,34.1,0,0,0-4.75-2.37c-2.63-1.12-5.21-2.2-7.71-3.23-16.64-6.84-37.77-13.27-37.77-13.27h-33.95s-25.85,5.16-41.25,11.47a28.55,28.55,0,0,0-5.56,3.05L1812,1009a.13.13,0,0,0,0,.06s0,.07,0,.13c2.08,13.61,4.27,29.68,5,40.94.3,4.6-5,29.29-7.71,52l-9.6,54.24S1805.22,1178.82,1937.64,1159.89Z"/><polygon class="cls-6" points="680.62 1849.37 665.24 1463.4 931.15 1463.4 946.53 1849.49 949.59 1849.37 934.09 1460.34 662.06 1460.34 677.56 1849.49 680.62 1849.37"/><polygon class="cls-6" points="668.04 1463.4 933.95 1463.4 918.57 1849.37 921.63 1849.49 937.13 1460.34 665.1 1460.34 649.6 1849.37 652.66 1849.49 668.04 1463.4"/><polygon class="cls-30" points="920.1 1723.92 651.13 1723.92 666.57 1336.36 935.54 1336.36 920.1 1723.92"/><polygon class="cls-31" points="686.68 1723.92 955.65 1723.92 940.21 1336.36 671.24 1336.36 686.68 1723.92"/><rect class="cls-32" x="898.82" y="1573.91" width="13.52" height="102.88"/><rect class="cls-32" x="872.11" y="1585.44" width="13.52" height="91.35"/><rect class="cls-32" x="843.09" y="1600.44" width="13.52" height="76.36"/><rect class="cls-32" x="813.29" y="1619.35" width="13.52" height="57.45"/><polygon class="cls-32" points="732.62 1607.16 729.69 1606.12 755.19 1534.6 810.47 1519.98 830.34 1441.48 873 1422.65 882.56 1361.62 885.63 1362.1 875.81 1424.81 832.98 1443.72 813.04 1522.52 757.57 1537.19 732.62 1607.16"/><path class="cls-33" d="M818.18,1516a8.3,8.3,0,1,1-11.68-1.18A8.29,8.29,0,0,1,818.18,1516Z"/><path class="cls-32" d="M818,1528.87a9.85,9.85,0,1,1,1.39-13.86A9.85,9.85,0,0,1,818,1528.87ZM807.49,1516a6.74,6.74,0,1,0,9.48,1A6.73,6.73,0,0,0,807.49,1516Z"/><path class="cls-34" d="M838.31,1437.82a8.3,8.3,0,1,1-11.68-1.17A8.3,8.3,0,0,1,838.31,1437.82Z"/><path class="cls-32" d="M838.12,1450.7a9.85,9.85,0,1,1,1.39-13.86A9.86,9.86,0,0,1,838.12,1450.7Zm-10.5-12.85a6.74,6.74,0,1,0,9.48,1A6.75,6.75,0,0,0,827.62,1437.85Z"/><path class="cls-34" d="M880.31,1418.46a8.29,8.29,0,1,1-11.67-1.18A8.29,8.29,0,0,1,880.31,1418.46Z"/><path class="cls-32" d="M880.13,1431.33a9.85,9.85,0,1,1,1.39-13.86A9.87,9.87,0,0,1,880.13,1431.33Zm-10.5-12.84a6.74,6.74,0,1,0,9.48,1A6.74,6.74,0,0,0,869.63,1418.49Z"/><path class="cls-35" d="M763.11,1531.35a8.3,8.3,0,1,1-11.67-1.17A8.3,8.3,0,0,1,763.11,1531.35Z"/><path class="cls-32" d="M762.92,1544.23a9.85,9.85,0,1,1,1.39-13.87A9.85,9.85,0,0,1,762.92,1544.23Zm-10.5-12.85a6.74,6.74,0,1,0,9.49.95A6.75,6.75,0,0,0,752.42,1531.38Z"/><rect class="cls-4" x="706.86" y="1436.28" width="83.06" height="17.21" rx="5.96"/><rect class="cls-4" x="706.86" y="1406.2" width="83.06" height="17.21" rx="5.96"/><path class="cls-36" d="M545.86,1138.05s22.78,11.15,17.15,41.47-8.13,34.41-1.83,46.26,13.74,62.39,8.07,72-70.21-42.1-79.16-85.46,5.67-62.64,10.84-69.83S525.74,1127.84,545.86,1138.05Z"/><polygon class="cls-37" points="660.12 1101.06 587.21 1101.06 587.21 1153.9 587.21 1165.04 598.34 1153.9 660.12 1153.9 660.12 1101.06"/><path class="cls-38" d="M537.26,1841.81h5.16v-24.36s10.13,6.75,16.49,16.09,15.1,8.54,28.4,7.94,12.72-6,11.52-13.5-14.69-9.94-19.06-11.13-14.29-18.28-17.48-22.44a57.31,57.31,0,0,1-6.66-11.13s-2.48-10.13-14.8,0-8.74,29.6-7.35,31.39S537.26,1841.81,537.26,1841.81Z"/><path class="cls-14" d="M563.28,1816.85c4.57,3,16.49,0,16.49,0-3.38-4.37-24.14-33.57-24.14-33.57-12.61-7.35-17.6,2.77-17.6,2.77C543.18,1787.62,558.71,1813.87,563.28,1816.85Z"/><path class="cls-14" d="M696.09,1367.5s8.27,1.59,11.1-2.3c2.4-3.3,7.89-5.84,9.58-6.62,2.26-1,8-6.85,9.35-4s-9,10-10.87,12,10.15,2.8,12.22,4.69-.48,21.7-8.65,20.16-15.9-8.59-17.39-8.58a50,50,0,0,1-6-.88Z"/><path class="cls-14" d="M725.65,1370.4s24.72,6.38,26,8.19.87,3.12-1.47,2.62-24.06-5.48-24.06-5.48,28,12.48,29.37,13.73c.8.73.13,3.33-1.14,3.18s-29.73-10.94-29.73-10.94,26.12,11.7,27,13.09a2,2,0,0,1-2.47,2.71c-2-.73-26.85-10.22-26.85-10.22s18.47,9.71,18.49,11.3c0,1-.46,3.26-5.15.6s-16.4-7.75-16.4-7.75Z"/><path class="cls-38" d="M470.34,1843.47h3.17v-17.88a38.88,38.88,0,0,1,8.24,14.36c2.58,8.54,11.83,11.07,25.93,10.68s14.3-6,13.11-14.31-13.11-12.71-13.11-12.71c-5.36-4.77-18.67-24.54-18.67-24.54s-8.54-2.28-15.25,3.13-4.61,17.63-4.42,20.81S470.34,1843.47,470.34,1843.47Z"/><path class="cls-39" d="M480.07,1417.59s-16.81,21.85-21.36,47.77,2.69,112.93,2.49,125.74-12.12,44.69-9.73,68.83,11.79,144.25,11.79,144.25l25.75-5.11s-1.49-122.46,0-132.59,4.48-47,5.07-51.23,37.83-113.7,37.83-132.39S520.59,1387.1,480.07,1417.59Z"/><path class="cls-39" d="M564.49,1426.13s27.61,105.38,30.89,120,8,26.64,8,32.84c0,14.38-5.34,37.48-5.34,37.48L563,1784.11H529.61s18.6-100.6,19.1-120.27,15.68-47.71,12.7-56-48-104.59-48-104.59S479.38,1395.54,564.49,1426.13Z"/><path class="cls-14" d="M507.68,1823.61,489,1799.07l-15.25,3.13s4.11,11,11.52,19.24C494.05,1831.23,507.68,1823.61,507.68,1823.61Z"/><path class="cls-40" d="M553.09,1247.06a34.42,34.42,0,0,1,20,10.29c8.6,9.21,16.68,23.91,18.93,28.82s33.83,50.47,35.47,51.49,17.51,6.33,28,9.87c16.23,5.46,48.76,17.29,48.76,17.29l-6.46,20.45s-61.18-20-76.5-23.79c-18.73-4.61-61.86-60-61.86-60S527.28,1263.85,553.09,1247.06Z"/><path class="cls-41" d="M533.22,1239.07s14.75,7,19.87,8,25,26.83,28.46,36.25,0,23.55-7.16,40.14-.41,22.11-3.69,38.7-2.22,78.65-1.61,87.86-95.86,23.19-114.9,6.4c0,0,12.89-55.93,28.16-71.9,3.3-3.45,2.95-26.45.7-32.19s-27.65-48.53-27.65-48.53-1.86-43.42,9.22-52c9.62-7.48,35.85-10.14,40.56-11.78S523.6,1237.64,533.22,1239.07Z"/><path class="cls-14" d="M540.26,1222.05s-.44,4.06-1,9.55c-.19,2.17-.41,4.57-.6,7-.59,7.36-1.06,15.25-.77,19.29,0,0-15.33,15.36-32.75-17.92,0,0,7.32-13.72,1.81-32.4S540.26,1222.05,540.26,1222.05Z"/><path class="cls-42" d="M583.15,1329.56s3.69-24.53-.23-39.45c0,0,0,12.83-7,31.05Z"/><path class="cls-14" d="M493.41,1242.35s10.54,31.13,39.48,28.84,13.72-26.28,13.72-26.28-7.21-4.14-9.24-4.53-32-.77-32-.77Z"/><path class="cls-40" d="M546.61,1244.91s15.15,41.92,15.15,84.65,1.23,112.34,6.52,134.32,20.35,90,20.35,90l11.81-6.1s-28.39-108.5-30.53-116.32,1.62-90.47,3.66-97.39,10.69-37.72,9.35-46.27c-1.7-10.77-11.78-26.71-28.06-40.42Z"/><path class="cls-40" d="M499.13,1241a436.62,436.62,0,0,1,14.2,68.8c4.77,38.63-14.66,218-27.69,258.66l-50.47-8.14S446,1433.6,460.78,1410.54s19.45-43.48,3.52-91.62,7-72,7-72S494.7,1241.54,499.13,1241Z"/><polygon class="cls-43" points="553.59 1368.96 492.38 1474.96 424.35 1435.68 482.89 1328.14 553.59 1368.96"/><polygon class="cls-44" points="546.21 1372.61 491.85 1466.75 431.43 1431.86 483.42 1336.36 546.21 1372.61"/><polygon class="cls-43" points="526.16 1364.15 529.97 1357.54 505.54 1343.43 500.77 1349.49 526.16 1364.15"/><path class="cls-14" d="M523.24,1439.36a12.64,12.64,0,0,1-4-.58s-2.14-1.24-3.71-2a10.76,10.76,0,0,0-1.24-.55,23.47,23.47,0,0,1-6.83-2.89c-2.7-1.87-12.28-13-12.28-13l4.52-6.88,3.32-7s20.12,1.3,22.85,2.76a7.83,7.83,0,0,1,.75.45c2.18,1.46,3.2,3.46,4.26,4.36.38.33,4,3.88,3.89,5.39a5,5,0,0,1-2.41,4.17s-.52,4.1-2.54,6a7.37,7.37,0,0,1-3.55,5.45S525.48,1438.81,523.24,1439.36Z"/><path class="cls-40" d="M481.77,1247.06s-18.59-5.33-29.24,15.15-10.59,29.22-12,39.22c-1.34,9.44-7.41,35.22-8,37.89s-14.36,34.41-8.06,45.5,70.66,44,70.26,46.44,11.14-24.82,11.14-24.82-26-14.51-30.3-19c-6.92-7.26-21.53-15.08-18.53-24.08,3.53-10.57,14.12-46.24,16.58-51.47S497.43,1253.71,481.77,1247.06Z"/><path class="cls-21" d="M542.55,1141.41s33.09,10.4,15.13,67.5-63.15-6.62-58.43-41.41S542.55,1141.41,542.55,1141.41Z"/><path class="cls-36" d="M561.06,1174.73s-16.44,16.13-44,18.15c0,0-10.57,12.4-11.38,17.26,0,0-24.55-41.84,5.62-66.92S572.15,1164.39,561.06,1174.73Z"/><path class="cls-21" d="M517.43,1194c-.21-4.16-2.77-13.62-8.95-11s.38,21.91,4.48,20.72C513,1203.77,517.94,1203.85,517.43,1194Z"/><path class="cls-25" d="M539.31,1231.6c-.19,2.17-.41,4.57-.6,7,0,0-14.61-.87-24.37-22.59C515,1217,525.68,1232.7,539.31,1231.6Z"/><rect class="cls-45" x="2534.02" y="1497.48" width="113.97" height="6.77" transform="translate(5182.01 3001.73) rotate(180)"/><rect class="cls-46" x="2622.73" y="1521.86" width="9.99" height="307.68"/><rect class="cls-47" x="2472.64" y="1495.56" width="79.22" height="9.66" transform="translate(5024.49 3000.79) rotate(180)"/><rect class="cls-47" x="2497.25" y="1413.13" width="30" height="91.12" transform="translate(5024.49 2917.38) rotate(180)"/><rect class="cls-48" x="2249.94" y="1504.36" width="438.94" height="17.49" transform="translate(4938.82 3026.22) rotate(180)"/><path class="cls-20" d="M2773.12,1398.47s4.8,67.33-8.35,75.38c-8.25,5.05-41.1,22.08-40.13,25.27s18.55,28.4,18.55,28.4,63.12-41.56,65.15-54.65c2-12.8-3.11-98.58-11.78-102.53-6.5-3-9.93-.51-18.11,5.57C2767,1384.44,2773.12,1398.47,2773.12,1398.47Z"/><path class="cls-49" d="M2658.1,1417.7l-5.56-2.06s6.93-16.29,10-15.89a75.78,75.78,0,0,1,7.84,1.61Z"/><path class="cls-50" d="M2656.83,1420.5c.71-.53,11.82-21.85,11.82-21.85l23.74,3.23-12.83,25.25Z"/><path class="cls-51" d="M2695.47,1787.53s2,13.62,2.21,15.67,21.83-1.21,21.83-1.21l1.75-16.22S2698.17,1785.61,2695.47,1787.53Z"/><path class="cls-17" d="M2697.45,1801.46s-6.84,8.21-13.46,11.79-17,5-20.92,8.7c-2.82,2.67-10.28,14.18,17.19,14s40.72,1.62,43.66-2.79-4.25-32.57-4.25-32.57S2713.16,1802.88,2697.45,1801.46Z"/><path class="cls-51" d="M2557.17,1787.66s2,13.62,2.21,15.67,21.83-1.21,21.83-1.21l1.75-16.22S2559.87,1785.74,2557.17,1787.66Z"/><path class="cls-17" d="M2559.15,1801.59s-6.84,8.21-13.46,11.79-31,6.52-34.87,10.22c-2.82,2.67-7.52,13.43,31.14,12.43,27.47-.72,40.72,1.62,43.66-2.79s-4.25-32.57-4.25-32.57S2575.24,1803.17,2559.15,1801.59Z"/><path class="cls-17" d="M2765.09,1552.22s-78.47,13.28-96.2,16.07-113.84,26.7-125.85,34c-9.57,5.8,5,145.12,8.42,198.27h37.86l2.74-159.44c45.43,1.14,77.84-10.63,110.92-5.6s60.66,12.16,81.68-16C2784.66,1619.47,2785.44,1558.38,2765.09,1552.22Z"/><path class="cls-17" d="M2687.74,1800.67l36.89-2.28,3.6-157.29c19.55.49,26.26-.75,42.08-2.67l29.79-69.23c-26.1,5.21-109.74,26.31-120.89,33.07C2669.64,1608.07,2684.33,1747.52,2687.74,1800.67Z"/><path class="cls-14" d="M2729,1258.05s-28.77-8-39.75,14.39-6,64.67,8.5,68.65,35.35-.6,41.37-14.5,10.82-33.66,9.38-46.45S2736.61,1261.11,2729,1258.05Z"/><path class="cls-14" d="M2705.24,1336.63s.32,17-1.56,20.61,40.06,2.71,40.06,2.71-6.61-20.39-2.86-37.77C2744.59,1305,2705.24,1336.63,2705.24,1336.63Z"/><path class="cls-52" d="M2743.14,1315.75s-2.24,4.56-13.09,3.82-25.17-13.83-29.78-15-4.88-3.79-4.88-3.79l-2.44,4.33-4.72.72s3.21-13.12-3.78-17.74,3.14-41.84,38.54-32.87c0,0,27,5,27.37,20S2748.39,1307.76,2743.14,1315.75Z"/><path class="cls-45" d="M2701.48,1356.8s.12-6.92,3.25-7.58,33-4.76,36.81-3.25l1.65,9.13S2735.78,1359.67,2701.48,1356.8Z"/><path class="cls-14" d="M2692.85,1297.68c.8-5.67,7.25-12.18,10.94-3.35s-2.49,21.7-6.63,21S2691.76,1305.38,2692.85,1297.68Z"/><path class="cls-20" d="M2576.55,1438.54h0C2576.39,1438.63,2576.36,1438.64,2576.55,1438.54Z"/><path class="cls-52" d="M2737.36,1262.1s35.08-1.65,6.12,53.11Z"/><polygon class="cls-53" points="2815.51 1819.33 2812.91 1826.67 2702.65 1792.51 2707.93 1777.64 2815.51 1819.33"/><rect class="cls-53" x="2698.87" y="1667.41" width="12.53" height="119.87" transform="translate(5410.27 3454.69) rotate(180)"/><rect class="cls-54" x="2668.18" y="1661.04" width="73.91" height="7.06" transform="translate(5410.27 3329.14) rotate(180)"/><polygon class="cls-53" points="2593.79 1819.33 2596.4 1826.67 2706.65 1792.51 2701.81 1776.71 2593.79 1819.33"/><polygon class="cls-53" points="2671.47 1825.88 2671.47 1834.42 2706.65 1792.51 2701.81 1776.71 2671.47 1825.88"/><circle class="cls-55" cx="2593.79" cy="1829.54" r="10.3"/><circle class="cls-55" cx="2680.9" cy="1829.54" r="10.3"/><circle class="cls-55" cx="2815.51" cy="1829.54" r="10.3"/><rect class="cls-45" x="2617.1" y="1634.29" width="175.1" height="26.75" rx="13.21" transform="translate(5409.3 3295.33) rotate(-180)"/><rect class="cls-46" x="2306.1" y="1521.86" width="9.99" height="307.68" transform="translate(4622.19 3351.39) rotate(180)"/><rect class="cls-56" x="2382.72" y="1274.28" width="259.04" height="182.74" rx="13.18" transform="translate(5024.49 2731.3) rotate(180)"/><rect class="cls-57" x="2392.87" y="1284.16" width="238.75" height="144.23" transform="translate(5024.49 2712.54) rotate(180)"/><circle class="cls-58" cx="2512.25" cy="1439.92" r="8.36" transform="translate(-16.96 30.01) rotate(-0.68)"/><path class="cls-45" d="M2458.62,1504.59v-3.25s4.57-20.22,36.91-20.22,31.68,23.47,31.68,23.47Z"/><path class="cls-14" d="M2527.61,1484.12s-7-.54-9.6-2.1-18-11.91-21.59-10.25-27.69,9-26.86,12.55,3.07,3.18,4.77,2.56,19.17-4.29,20.71-3.67c0,0-17.16,6.26-17.23,10.83s3.59,5.68,5.22,7.41,3.58,6,8,6.35,26-7.18,30.45-7.52,12.67.27,13.23-.45S2527.61,1484.12,2527.61,1484.12Z"/><path class="cls-20" d="M2655.5,1366.39c22.4-3.93,46-9.59,46-9.59l41.72-1.7s38.28,8.43,53.36,15.24c1.43.65,1.44,34.16,5.36,42.94l-12.5,26.38s-7.22,52.24-8.72,75.47c-.69,10.67,2,103.09,2,103.09s-3.75,1.85-32.22,5-99.61-1.14-100.06-4.5,13.78-125.22,14.41-131.53c1-9.68-2.8-54.43-2.8-54.43-5.36,7.2-19,39.74-33.29,55.22-8.39,9.11-49.91,14.7-57.73,15-17,.57-48.12,4-49,2.3-.73-1-2.71-27.58-.76-28.23,1.7-.57,59.41-3.89,74.19-11.74,5.41-2.87,21.58-38.13,21.58-38.13S2643.15,1371.94,2655.5,1366.39Z"/><rect class="cls-45" x="2712.35" y="1448.31" width="120.75" height="167.24" rx="25.36" transform="translate(5545.46 3063.85) rotate(180)"/><path class="cls-45" d="M2733.75,1654.38c17.8,0,32.24-6,42.92-17.77,24.14-26.65,19.8-73.5,19.61-75.48a6.72,6.72,0,0,0-13.37,1.32c.05.54,3.89,43-16.22,65.17-8.14,9-18.91,13.33-32.94,13.33a6.72,6.72,0,1,0,0,13.43Z"/><rect class="cls-59" x="2544.76" y="1295.64" width="69.94" height="7.62" rx="1.89" transform="translate(5159.46 2598.91) rotate(180)"/><rect class="cls-59" x="2544.76" y="1311.99" width="69.94" height="7.62" rx="1.89" transform="translate(5159.46 2631.6) rotate(180)"/><rect class="cls-59" x="2544.76" y="1330.73" width="69.94" height="86.16" rx="6.35" transform="translate(5159.46 2747.63) rotate(180)"/><rect class="cls-59" x="2406.1" y="1295.64" width="124.54" height="121.25" rx="10.05" transform="translate(4936.74 2712.54) rotate(180)"/><polygon class="cls-17" points="1051.93 1316.63 986.27 1352.72 920.32 1248.94 1000.08 1221.24 1051.93 1316.63"/><polygon class="cls-45" points="1047.77 1313.51 986.36 1347.27 924.68 1250.21 999.28 1224.31 1047.77 1313.51"/><path class="cls-14" d="M1070.26,1295.36s-11.43-5.47-16.44-8.32-17.93-6.78-19-7.72-38.26-3.22-40.51-5.17-4.46,4.56,5.19,6.68,23.07,7.28,23.8,11.05-9.91,4.66-11,7.76.3,2.41,1.82,3.08,12.66-5.5,17.56-3.75,12.37-.68,16.13.61,22,7.42,22,7.42Z"/><path class="cls-14" d="M983.06,1339.7s-9.6-8.64-14.24-12.25-13.37-14.25-14.66-14.87-17.93-34.8-20.65-36.17,2.57-6,8.32,2.3,15.84,18.9,19.68,18.12.53-11.15,3-13.37,2.39-.65,3.61.52-.26,14.07,3.3,18,4.18,11.93,6.86,15,15.56,17.83,15.56,17.83Z"/><path class="cls-51" d="M1189.86,1801.64s2.08,14.41,2.34,16.58,23.11-1.28,23.11-1.28l1.85-17.16S1192.72,1799.6,1189.86,1801.64Z"/><path class="cls-17" d="M1192,1816.39s-7.24,8.68-14.24,12.47-18,5.29-22.15,9.21c-3,2.83-10.88,15,18.2,14.76s43.09,1.72,46.21-2.95-4.51-34.47-4.51-34.47S1208.58,1817.89,1192,1816.39Z"/><path class="cls-51" d="M1026.16,1801.64s2.08,14.41,2.34,16.58,23.1-1.28,23.1-1.28l1.85-17.16S1029,1799.6,1026.16,1801.64Z"/><path class="cls-17" d="M1028.25,1816.39s-7.23,8.68-14.24,12.47-32.76,6.9-36.9,10.82c-3,2.83-8,14.22,32.95,13.15,29.07-.76,43.1,1.72,46.22-2.95s-4.51-34.47-4.51-34.47S1045.28,1818.06,1028.25,1816.39Z"/><path class="cls-17" d="M1170.94,1431.17s21.47,34.11,19.87,64.94,7.78,64.49,11,96.7c3.59,35.9,18.31,120.9,18.84,140.11s-2.28,80.53-2.28,80.53l-29.46.68s-24.73-148.61-31.14-163.77-38.17-123.26-39.24-135.39S1170.94,1431.17,1170.94,1431.17Z"/><path class="cls-17" d="M1057.93,1435.79s-16.17,84.5-18.31,103.37-3.56,91.32-4.63,103.11-7.11,154.34-12.81,171.86h37.65s28.91-103.62,28.91-152.65,22.33-106.58,36.74-138.93,47.41-33.11,56.27-93.13C1181.75,1429.42,1069.93,1416.75,1057.93,1435.79Z"/><path class="cls-14" d="M1135.12,1144.41s-28.81-10.76-42.1,11.17-12,65.85,2.52,71.25,36.34,2.57,43.78-11.15,14.15-33.57,13.82-46.83S1142.69,1148.24,1135.12,1144.41Z"/><path class="cls-14" d="M1098.67,1227.83s1.2,7.78-.79,11.62,37.33,3.93,37.33,3.93,3.2-20.85,9.25-38.46S1098.67,1227.83,1098.67,1227.83Z"/><path class="cls-52" d="M1144.46,1204.92s-2.72,4.47-13.79,2.74-24.59-16.47-29.22-18.09-4.66-4.34-4.66-4.34l-2.9,4.23-4.91.31s4.48-13.18-2.28-18.55,7-42.67,42.54-30.25c0,0,27.28,7.52,26.29,23S1150.56,1197.19,1144.46,1204.92Z"/><path class="cls-45" d="M1095.55,1239s.12-7.32,3.44-8,36.64-3.91,40.71-2.3v8.52S1131.85,1242,1095.55,1239Z"/><path class="cls-14" d="M1097.52,1179.59c.62-2.6,7.24-10,9.77-2.08s-3.83,18.68-7.37,17.76S1096,1186.19,1097.52,1179.59Z"/><path class="cls-20" d="M963.33,1325.5h0C963.15,1325.59,963.12,1325.6,963.33,1325.5Z"/><path class="cls-8" d="M1195.16,1512.42s-17.67,5.21-47.8,8.53-105.43-1.2-105.9-4.76,16.19-132.57,15.24-139.21-1.45-30.32-1.45-30.32c-.37,6.49-7,33-15,47.43-2.88,5.21-12.55,21.57-17.21,17.85-22.55-18-57.48-85.87-59.7-86.45,1.87-.81,16.56-7.57,18.62-8.26,1.8-.6,18.08,16.63,27.94,27.31,4.39,4.76,7.51,8.22,7.51,8.22,2.85-6.41,13.22-46.76,16.44-60.73,7.27-31.5,6.15-32.81,6.15-32.81,22-6.66,55.51-20.24,55.51-20.24l44.15-1.8s40.53,8.92,56.48,16.13c1.52.69,1.52,36.15,5.68,45.45l-13.23,27.92s-7.65,55.29-9.23,79.88C1178.67,1417.85,1195.16,1512.42,1195.16,1512.42Z"/><path class="cls-8" d="M1203.69,1344.81c-1.15,3.72-6.39,6.87-9.78,8.24a12.62,12.62,0,0,1-7.07.71l-1.73-.32h0l-30.26-5.61s-6.62-76.25,41.33-94.52C1197.45,1253.73,1214.28,1310.67,1203.69,1344.81Z"/><path class="cls-60" d="M1193.91,1353.05h0a12.62,12.62,0,0,1-7.07.71l-1.73-.32h0l3-39Z"/><path class="cls-60" d="M1017.45,1352.76l-3.7,15.66s-4-15.71-3.81-23.88C1014.33,1349.3,1017.45,1352.76,1017.45,1352.76Z"/><path class="cls-52" d="M1143.33,1147s37.76-4.73.64,58.35Z"/><polygon class="cls-17" points="950.68 1243.38 946.84 1236.78 977.07 1226.35 980.91 1232.91 950.68 1243.38"/></svg>