<svg id="OBJECTS" xmlns="http://www.w3.org/2000/svg" xmlns:xlink="http://www.w3.org/1999/xlink" viewBox="0 0 498.39 405.89"><defs><style>.cls-1{opacity:0.31;}.cls-2{opacity:0.5;}.cls-3{fill:#c6e4f4;}.cls-4{fill:#ff4512;}.cls-5{fill:#e51010;}.cls-6{fill:url(#linear-gradient);}.cls-7{fill:url(#linear-gradient-2);}.cls-8{fill:url(#linear-gradient-3);}.cls-9{fill:url(#linear-gradient-4);}.cls-10{fill:url(#linear-gradient-5);}.cls-11{fill:url(#linear-gradient-6);}.cls-12{fill:url(#linear-gradient-7);}.cls-13{fill:url(#linear-gradient-8);}.cls-14{fill:url(#linear-gradient-9);}.cls-15{fill:#c61a1a;}.cls-16{fill:url(#linear-gradient-10);}.cls-17{fill:url(#linear-gradient-11);}.cls-18{fill:url(#linear-gradient-12);}.cls-19,.cls-67{fill:#fff;}.cls-20{fill:url(#linear-gradient-13);}.cls-21{fill:url(#linear-gradient-14);}.cls-22{fill:url(#linear-gradient-15);}.cls-23{fill:url(#linear-gradient-16);}.cls-24{fill:url(#linear-gradient-17);}.cls-25{fill:url(#linear-gradient-18);}.cls-26{fill:url(#linear-gradient-19);}.cls-27{fill:url(#linear-gradient-20);}.cls-28{fill:url(#linear-gradient-21);}.cls-29{fill:#f0cd30;}.cls-30{fill:url(#linear-gradient-22);}.cls-31{fill:url(#linear-gradient-23);}.cls-32{fill:url(#linear-gradient-24);}.cls-33{fill:url(#linear-gradient-25);}.cls-34{fill:url(#linear-gradient-26);}.cls-35{fill:url(#linear-gradient-27);}.cls-36{fill:url(#linear-gradient-28);}.cls-37{fill:url(#linear-gradient-29);}.cls-38{fill:url(#linear-gradient-30);}.cls-39{fill:#9dc44d;}.cls-40{fill:#d6ac63;}.cls-41{fill:#547fb9;}.cls-42{fill:url(#linear-gradient-31);}.cls-43{fill:url(#linear-gradient-32);}.cls-44{fill:url(#linear-gradient-33);}.cls-45{fill:url(#linear-gradient-34);}.cls-46{fill:url(#linear-gradient-35);}.cls-47{fill:url(#linear-gradient-36);}.cls-48{fill:url(#linear-gradient-37);}.cls-49{fill:url(#linear-gradient-38);}.cls-50{fill:url(#linear-gradient-39);}.cls-51{fill:url(#linear-gradient-40);}.cls-52{fill:url(#linear-gradient-41);}.cls-53{fill:url(#linear-gradient-42);}.cls-54{fill:url(#linear-gradient-43);}.cls-55{fill:url(#linear-gradient-44);}.cls-56{fill:url(#linear-gradient-45);}.cls-57{fill:url(#linear-gradient-46);}.cls-58{fill:url(#linear-gradient-47);}.cls-59{fill:url(#linear-gradient-48);}.cls-60{fill:url(#linear-gradient-49);}.cls-61{fill:url(#linear-gradient-50);}.cls-62{fill:url(#linear-gradient-51);}.cls-63{fill:url(#linear-gradient-52);}.cls-64{fill:url(#linear-gradient-53);}.cls-65{fill:url(#linear-gradient-54);}.cls-66{fill:url(#linear-gradient-55);}.cls-67{font-size:20px;font-family:Poppins-Bold, Poppins;font-weight:700;}</style><linearGradient id="linear-gradient" x1="248.44" y1="314.04" x2="248.44" y2="121.79" gradientUnits="userSpaceOnUse"><stop offset="0" stop-color="#7fa0c1"/><stop offset="1" stop-color="#c6e3f0"/></linearGradient><linearGradient id="linear-gradient-2" x1="248.44" y1="309.21" x2="248.44" y2="345.84" xlink:href="#linear-gradient"/><linearGradient id="linear-gradient-3" x1="394.41" y1="420.33" x2="394.41" y2="375.94" xlink:href="#linear-gradient"/><linearGradient id="linear-gradient-4" x1="394.41" y1="374.7" x2="394.41" y2="177.11" gradientTransform="translate(136.58 652.24) rotate(-90)" gradientUnits="userSpaceOnUse"><stop offset="0" stop-color="#394967"/><stop offset="1" stop-color="#232d4a"/></linearGradient><linearGradient id="linear-gradient-5" x1="275.81" y1="322.93" x2="275.81" y2="212.36" gradientUnits="userSpaceOnUse"><stop offset="0" stop-color="#c6d4e5"/><stop offset="1" stop-color="#fff"/></linearGradient><linearGradient id="linear-gradient-6" x1="414.48" y1="322.93" x2="414.48" y2="212.36" xlink:href="#linear-gradient-5"/><linearGradient id="linear-gradient-7" x1="244.91" y1="179.9" x2="244.91" y2="199.17" gradientUnits="userSpaceOnUse"><stop offset="0.55" stop-color="#e51010"/><stop offset="0.97" stop-color="#e8ab28"/></linearGradient><linearGradient id="linear-gradient-8" x1="244.91" y1="164.48" x2="244.91" y2="183.75" xlink:href="#linear-gradient-7"/><linearGradient id="linear-gradient-9" x1="150.67" y1="278.11" x2="150.67" y2="211.28" gradientUnits="userSpaceOnUse"><stop offset="0.32" stop-color="#c61a1a"/><stop offset="1" stop-color="#fcd428"/></linearGradient><linearGradient id="linear-gradient-10" x1="399.06" y1="121.46" x2="366.79" y2="121.46" gradientTransform="matrix(1, 0, 0, 1, 0, 0)" xlink:href="#linear-gradient-4"/><linearGradient id="linear-gradient-11" x1="399.06" y1="130.74" x2="366.79" y2="130.74" gradientTransform="matrix(1, 0, 0, 1, 0, 0)" xlink:href="#linear-gradient-4"/><linearGradient id="linear-gradient-12" x1="399" y1="142.9" x2="366.87" y2="142.9" gradientTransform="matrix(1, 0, 0, 1, 0, 0)" xlink:href="#linear-gradient-4"/><linearGradient id="linear-gradient-13" x1="434.77" y1="197.54" x2="434.77" y2="208.9" gradientTransform="matrix(1, 0, 0, 1, 0, 0)" xlink:href="#linear-gradient-4"/><linearGradient id="linear-gradient-14" x1="434.77" y1="196.37" x2="434.77" y2="189.06" gradientUnits="userSpaceOnUse"><stop offset="0" stop-color="#e51010"/><stop offset="0.41" stop-color="#e51512"/><stop offset="1" stop-color="#e79a49"/></linearGradient><linearGradient id="linear-gradient-15" x1="599.84" y1="239.17" x2="599.84" y2="250.53" gradientTransform="translate(-26.84 417.36) rotate(-37.58)" xlink:href="#linear-gradient-4"/><linearGradient id="linear-gradient-16" x1="560.28" y1="239.17" x2="560.28" y2="250.53" gradientTransform="translate(298.87 -305.48) rotate(40.79)" xlink:href="#linear-gradient-4"/><linearGradient id="linear-gradient-17" x1="580.74" y1="251.26" x2="580.74" y2="279.41" gradientTransform="matrix(1, 0, 0, 1, 0, 0)" xlink:href="#linear-gradient-4"/><linearGradient id="linear-gradient-18" x1="600.76" y1="251.26" x2="600.76" y2="279.41" gradientTransform="matrix(1, 0, 0, 1, 0, 0)" xlink:href="#linear-gradient-4"/><linearGradient id="linear-gradient-19" x1="580.74" y1="251.26" x2="580.74" y2="279.41" gradientTransform="matrix(1, 0, 0, 1, 0, 0)" xlink:href="#linear-gradient-4"/><linearGradient id="linear-gradient-20" x1="560.71" y1="251.26" x2="560.71" y2="279.41" gradientTransform="matrix(1, 0, 0, 1, 0, 0)" xlink:href="#linear-gradient-4"/><linearGradient id="linear-gradient-21" x1="584.14" y1="251.26" x2="584.14" y2="279.41" gradientTransform="matrix(1, 0, 0, 1, 0, 0)" xlink:href="#linear-gradient-4"/><linearGradient id="linear-gradient-22" x1="540.44" y1="154.5" x2="585.06" y2="154.5" gradientTransform="translate(1109.2 -50.32) rotate(144.1)" gradientUnits="userSpaceOnUse"><stop offset="0" stop-color="#e51010"/><stop offset="1" stop-color="#e8ab28"/></linearGradient><linearGradient id="linear-gradient-23" x1="523.92" y1="142.39" x2="568.54" y2="142.39" gradientTransform="translate(1072.2 -62.56) rotate(144.1)" xlink:href="#linear-gradient-22"/><linearGradient id="linear-gradient-24" x1="561.57" y1="118.25" x2="591.06" y2="118.25" gradientTransform="translate(1112.49 -123.9) rotate(144.1)" gradientUnits="userSpaceOnUse"><stop offset="0" stop-color="#f5dec3"/><stop offset="1" stop-color="#f0c77c"/></linearGradient><linearGradient id="linear-gradient-25" x1="371.12" y1="141.38" x2="401.48" y2="141.38" gradientTransform="matrix(1, 0, 0, 1, 0, 0)" xlink:href="#linear-gradient-24"/><linearGradient id="linear-gradient-26" x1="382.11" y1="143.27" x2="374.06" y2="154.33" gradientUnits="userSpaceOnUse"><stop offset="0" stop-color="#3c2308"/><stop offset="1" stop-color="#4e3421"/></linearGradient><linearGradient id="linear-gradient-27" x1="195.62" y1="256.91" x2="195.62" y2="318.48" gradientTransform="matrix(1, 0, 0, 1, 0, 0)" xlink:href="#linear-gradient-4"/><linearGradient id="linear-gradient-28" x1="341.59" y1="313.22" x2="341.59" y2="290.54" gradientUnits="userSpaceOnUse"><stop offset="0" stop-color="#7b7b7b"/><stop offset="1" stop-color="#ededed"/></linearGradient><linearGradient id="linear-gradient-29" x1="295.37" y1="296.57" x2="295.37" y2="290.61" gradientUnits="userSpaceOnUse"><stop offset="0" stop-color="#dc5d17"/><stop offset="1" stop-color="#e79a49"/></linearGradient><linearGradient id="linear-gradient-30" x1="307.02" y1="289.86" x2="307.02" y2="295.46" gradientUnits="userSpaceOnUse"><stop offset="0" stop-color="#f0cd30"/><stop offset="1" stop-color="#e8ab28"/></linearGradient><linearGradient id="linear-gradient-31" x1="486.06" y1="194.86" x2="486.06" y2="182.1" xlink:href="#linear-gradient-29"/><linearGradient id="linear-gradient-32" x1="433.06" y1="97.49" x2="446.51" y2="97.49" gradientTransform="matrix(1, 0, 0, 1, 0, 0)" xlink:href="#linear-gradient-24"/><linearGradient id="linear-gradient-33" x1="440.51" y1="106.91" x2="440.51" y2="91.92" gradientTransform="matrix(1, 0, 0, 1, 0, 0)" xlink:href="#linear-gradient-4"/><linearGradient id="linear-gradient-34" x1="436.9" y1="145.59" x2="443.14" y2="145.59" gradientTransform="matrix(1, 0, 0, 1, 0, 0)" xlink:href="#linear-gradient-24"/><linearGradient id="linear-gradient-35" x1="293.32" y1="98.02" x2="323.61" y2="98.02" gradientUnits="userSpaceOnUse"><stop offset="0" stop-color="#9b9b9b"/><stop offset="1" stop-color="#ededed"/></linearGradient><linearGradient id="linear-gradient-36" x1="450.19" y1="434" x2="450.19" y2="379.86" gradientUnits="userSpaceOnUse"><stop offset="0" stop-color="#6091d5"/><stop offset="1" stop-color="#3f6096"/></linearGradient><linearGradient id="linear-gradient-37" x1="465.5" y1="194.86" x2="465.5" y2="184.18" xlink:href="#linear-gradient-29"/><linearGradient id="linear-gradient-38" x1="184.49" y1="441.55" x2="184.49" y2="393.19" xlink:href="#linear-gradient-36"/><linearGradient id="linear-gradient-39" x1="194.62" y1="436.56" x2="194.62" y2="444.79" gradientTransform="matrix(1, 0, 0, 1, 0, 0)" xlink:href="#linear-gradient-4"/><linearGradient id="linear-gradient-40" x1="174.82" y1="434" x2="174.82" y2="379.86" gradientUnits="userSpaceOnUse"><stop offset="0" stop-color="#6091d5"/><stop offset="1" stop-color="#4868a4"/></linearGradient><linearGradient id="linear-gradient-41" x1="172.53" y1="436.56" x2="172.53" y2="444.79" gradientTransform="matrix(1, 0, 0, 1, 0, 0)" xlink:href="#linear-gradient-4"/><linearGradient id="linear-gradient-42" x1="179.18" y1="303.6" x2="185.58" y2="303.6" gradientTransform="matrix(1, 0, 0, 1, 0, 0)" xlink:href="#linear-gradient-24"/><linearGradient id="linear-gradient-43" x1="145.97" y1="315.39" x2="153.07" y2="315.39" gradientTransform="matrix(1, 0, 0, 1, 0, 0)" xlink:href="#linear-gradient-24"/><linearGradient id="linear-gradient-44" x1="165.58" y1="336.71" x2="182.65" y2="336.71" gradientTransform="matrix(1, 0, 0, 1, 0, 0)" xlink:href="#linear-gradient-24"/><linearGradient id="linear-gradient-45" x1="175.65" y1="343.53" x2="171.8" y2="331.98" gradientTransform="matrix(1, 0, 0, 1, 0, 0)" xlink:href="#linear-gradient-4"/><linearGradient id="linear-gradient-46" x1="122.2" y1="352.91" x2="228.12" y2="240.18" xlink:href="#linear-gradient-28"/><linearGradient id="linear-gradient-47" x1="330.32" y1="339.88" x2="369.06" y2="339.88" gradientTransform="matrix(1, 0, 0, 1, 0, 0)" xlink:href="#linear-gradient-24"/><linearGradient id="linear-gradient-48" x1="363.12" y1="425.06" x2="372.03" y2="425.06" gradientTransform="matrix(1, 0, 0, 1, 0, 0)" xlink:href="#linear-gradient-24"/><linearGradient id="linear-gradient-49" x1="362.93" y1="442.73" x2="362.93" y2="447.58" xlink:href="#linear-gradient-26"/><linearGradient id="linear-gradient-50" x1="376.91" y1="425.06" x2="385.82" y2="425.06" gradientTransform="matrix(1, 0, 0, 1, 0, 0)" xlink:href="#linear-gradient-24"/><linearGradient id="linear-gradient-51" x1="378.91" y1="442.73" x2="378.91" y2="447.58" xlink:href="#linear-gradient-26"/><linearGradient id="linear-gradient-52" x1="374.63" y1="385.24" x2="374.63" y2="409.89" xlink:href="#linear-gradient-26"/><linearGradient id="linear-gradient-53" x1="370.55" y1="341.72" x2="383.13" y2="341.72" gradientTransform="matrix(1, 0, 0, 1, 0, 0)" xlink:href="#linear-gradient-24"/><linearGradient id="linear-gradient-54" x1="380.5" y1="357.92" x2="380.5" y2="328.98" xlink:href="#linear-gradient-26"/><linearGradient id="linear-gradient-55" x1="368.12" y1="367.78" x2="391.51" y2="367.78" gradientTransform="matrix(1, 0, 0, 1, 0, 0)" xlink:href="#linear-gradient-24"/></defs><g class="cls-1"><g class="cls-2"><path class="cls-3" d="M398.46,119.5a53.32,53.32,0,0,0,2.79,8.74l-.32.42-9.31,12.08a67.37,67.37,0,0,0,8.82,12.14l14.43-5.13.5-.18a53.48,53.48,0,0,0,7.39,5.35l0,.55-.42,15.31a67,67,0,0,0,14.25,4.65l8.65-12.62.31-.46c1.51.13,3,.23,4.57.23s3.06-.1,4.57-.23l.32.46,8.64,12.62a66.87,66.87,0,0,0,14.26-4.65l-.42-15.31,0-.55a52.79,52.79,0,0,0,7.38-5.35l.51.18,14.43,5.13a67.32,67.32,0,0,0,8.81-12.14l-9.3-12.08-.32-.42a53.32,53.32,0,0,0,2.79-8.74l.52-.15L516.94,115a67.17,67.17,0,0,0,0-15l-14.67-4.32-.52-.16A53.51,53.51,0,0,0,499,86.82l.32-.42,9.3-12.09a67.6,67.6,0,0,0-8.81-12.13l-14.43,5.13-.51.18a52.85,52.85,0,0,0-7.38-5.36l0-.54.42-15.31a66.87,66.87,0,0,0-14.26-4.65L455,54.25l-.32.46c-1.51-.13-3-.23-4.57-.23s-3.06.1-4.57.23l-.31-.46-8.65-12.62a67,67,0,0,0-14.25,4.65l.42,15.31,0,.54a53.54,53.54,0,0,0-7.39,5.36l-.5-.18-14.43-5.13a67.65,67.65,0,0,0-8.82,12.13l9.31,12.09.32.42a53.51,53.51,0,0,0-2.79,8.73l-.53.16L383.27,100a65.62,65.62,0,0,0,0,15l14.66,4.32Zm24.17-12A27.48,27.48,0,1,1,450.1,135,27.47,27.47,0,0,1,422.63,107.53Z" transform="translate(-145.97 -41.63)"/></g><path class="cls-4" d="M468.23,254.64l-18.68,10.58a98.57,98.57,0,0,0,5,15.35l21.37-2.44a78.15,78.15,0,0,0,4,6.94l-12.78,17.26a98.38,98.38,0,0,0,10.81,12l18.5-10.89a79.22,79.22,0,0,0,6.48,4.7l-4.66,21A97.89,97.89,0,0,0,513,335.68l12.47-17.48a78.66,78.66,0,0,0,7.85,1.66l4.28,21c2.66.22,5.35.36,8.07.36s5.41-.14,8.07-.36l4.28-21a78.66,78.66,0,0,0,7.85-1.66l12.47,17.48a97.89,97.89,0,0,0,14.74-6.55l-4.65-21a79.06,79.06,0,0,0,6.47-4.7l18.5,10.89a98.38,98.38,0,0,0,10.81-12l-12.78-17.26a78.15,78.15,0,0,0,4-6.94l21.37,2.44a97.52,97.52,0,0,0,5-15.35l-18.68-10.58a77.08,77.08,0,0,0,.83-8l20.46-6.45a99.78,99.78,0,0,0-1.67-16.06l-21.37-2.06a77.93,77.93,0,0,0-2.48-7.62l16.1-14.24a98.78,98.78,0,0,0-8.09-14l-20.37,6.82a79.51,79.51,0,0,0-5.35-6L610,167.61a98.38,98.38,0,0,0-13-9.52l-15.85,14.52c-2.37-1.2-4.82-2.29-7.32-3.26l.19-21.49a99.24,99.24,0,0,0-15.79-3.33l-8.56,19.68c-1.33-.06-2.67-.1-4-.1s-2.68,0-4,.1l-8.56-19.68a99.47,99.47,0,0,0-15.79,3.33l.19,21.49q-3.75,1.46-7.32,3.26l-15.85-14.52a98.38,98.38,0,0,0-13,9.52l8.89,19.52c-1.88,1.89-3.66,3.89-5.35,6l-20.37-6.82a98.78,98.78,0,0,0-8.09,14l16.1,14.24A77.93,77.93,0,0,0,470,222.1l-21.37,2.06a99.78,99.78,0,0,0-1.67,16.06l20.46,6.45A77.08,77.08,0,0,0,468.23,254.64Zm37.61-12.17a39.81,39.81,0,1,1,39.81,39.82A39.81,39.81,0,0,1,505.84,242.47Z" transform="translate(-145.97 -41.63)"/><path class="cls-5" d="M468.23,254.64l-18.68,10.58a98.57,98.57,0,0,0,5,15.35l21.37-2.44a78.15,78.15,0,0,0,4,6.94l-12.78,17.26a98.38,98.38,0,0,0,10.81,12l18.5-10.89a79.22,79.22,0,0,0,6.48,4.7l-4.66,21A97.89,97.89,0,0,0,513,335.68l12.47-17.48a78.66,78.66,0,0,0,7.85,1.66l4.28,21c2.66.22,5.35.36,8.07.36s5.41-.14,8.07-.36l4.28-21a78.66,78.66,0,0,0,7.85-1.66l12.47,17.48a97.89,97.89,0,0,0,14.74-6.55l-4.65-21a79.06,79.06,0,0,0,6.47-4.7l18.5,10.89a98.38,98.38,0,0,0,10.81-12l-12.78-17.26a78.15,78.15,0,0,0,4-6.94l21.37,2.44a97.52,97.52,0,0,0,5-15.35l-18.68-10.58a77.08,77.08,0,0,0,.83-8l20.46-6.45a99.78,99.78,0,0,0-1.67-16.06l-21.37-2.06a77.93,77.93,0,0,0-2.48-7.62l16.1-14.24a98.78,98.78,0,0,0-8.09-14l-20.37,6.82a79.51,79.51,0,0,0-5.35-6L610,167.61a98.38,98.38,0,0,0-13-9.52l-15.85,14.52c-2.37-1.2-4.82-2.29-7.32-3.26l.19-21.49a99.24,99.24,0,0,0-15.79-3.33l-8.56,19.68c-1.33-.06-2.67-.1-4-.1s-2.68,0-4,.1l-8.56-19.68a99.47,99.47,0,0,0-15.79,3.33l.19,21.49q-3.75,1.46-7.32,3.26l-15.85-14.52a98.38,98.38,0,0,0-13,9.52l8.89,19.52c-1.88,1.89-3.66,3.89-5.35,6l-20.37-6.82a98.78,98.78,0,0,0-8.09,14l16.1,14.24A77.93,77.93,0,0,0,470,222.1l-21.37,2.06a99.78,99.78,0,0,0-1.67,16.06l20.46,6.45A77.08,77.08,0,0,0,468.23,254.64Zm37.61-12.17a39.81,39.81,0,1,1,39.81,39.82A39.81,39.81,0,0,1,505.84,242.47Z" transform="translate(-145.97 -41.63)"/><path class="cls-5" d="M468.23,254.64l-18.68,10.58a98.57,98.57,0,0,0,5,15.35l21.37-2.44a78.15,78.15,0,0,0,4,6.94l-12.78,17.26a98.38,98.38,0,0,0,10.81,12l18.5-10.89a79.22,79.22,0,0,0,6.48,4.7l-4.66,21A97.89,97.89,0,0,0,513,335.68l12.47-17.48a78.66,78.66,0,0,0,7.85,1.66l4.28,21c2.66.22,5.35.36,8.07.36s5.41-.14,8.07-.36l4.28-21a78.66,78.66,0,0,0,7.85-1.66l12.47,17.48a97.89,97.89,0,0,0,14.74-6.55l-4.65-21a79.06,79.06,0,0,0,6.47-4.7l18.5,10.89a98.38,98.38,0,0,0,10.81-12l-12.78-17.26a78.15,78.15,0,0,0,4-6.94l21.37,2.44a97.52,97.52,0,0,0,5-15.35l-18.68-10.58a77.08,77.08,0,0,0,.83-8l20.46-6.45a99.78,99.78,0,0,0-1.67-16.06l-21.37-2.06a77.93,77.93,0,0,0-2.48-7.62l16.1-14.24a98.78,98.78,0,0,0-8.09-14l-20.37,6.82a79.51,79.51,0,0,0-5.35-6L610,167.61a98.38,98.38,0,0,0-13-9.52l-15.85,14.52c-2.37-1.2-4.82-2.29-7.32-3.26l.19-21.49a99.24,99.24,0,0,0-15.79-3.33l-8.56,19.68c-1.33-.06-2.67-.1-4-.1s-2.68,0-4,.1l-8.56-19.68a99.47,99.47,0,0,0-15.79,3.33l.19,21.49q-3.75,1.46-7.32,3.26l-15.85-14.52a98.38,98.38,0,0,0-13,9.52l8.89,19.52c-1.88,1.89-3.66,3.89-5.35,6l-20.37-6.82a98.78,98.78,0,0,0-8.09,14l16.1,14.24A77.93,77.93,0,0,0,470,222.1l-21.37,2.06a99.78,99.78,0,0,0-1.67,16.06l20.46,6.45A77.08,77.08,0,0,0,468.23,254.64Zm37.61-12.17a39.81,39.81,0,1,1,39.81,39.82A39.81,39.81,0,0,1,505.84,242.47Z" transform="translate(-145.97 -41.63)"/></g><rect class="cls-6" x="79.3" y="121.79" width="338.27" height="192.25" rx="3.22"/><polygon class="cls-7" points="281.59 314.04 215.29 314.04 206.7 346.93 290.18 346.93 281.59 314.04"/><path class="cls-8" d="M473.11,405.52H315.71a1.37,1.37,0,0,1-.81-2.47l7.14-5.18a48.86,48.86,0,0,1,28.69-9.31h87.36a48.86,48.86,0,0,1,28.69,9.31l7.14,5.18A1.37,1.37,0,0,1,473.11,405.52Z" transform="translate(-145.97 -41.63)"/><rect class="cls-9" x="307.65" y="97.81" width="173.52" height="320.04" transform="translate(506.27 -178.21) rotate(90)"/><path class="cls-10" d="M289.39,200.07H262.23a5.2,5.2,0,0,1-5.2-5.21h0a5.2,5.2,0,0,1,5.2-5.2h27.16a5.2,5.2,0,0,1,5.2,5.2h0A5.2,5.2,0,0,1,289.39,200.07Z" transform="translate(-145.97 -41.63)"/><path class="cls-11" d="M309.7,200.07H519.26a5.21,5.21,0,0,0,5.21-5.21h0a5.2,5.2,0,0,0-5.21-5.2H309.7a5.2,5.2,0,0,0-5.2,5.2h0A5.2,5.2,0,0,0,309.7,200.07Z" transform="translate(-145.97 -41.63)"/><rect class="cls-12" x="111.05" y="192.28" width="267.72" height="8.18"/><rect class="cls-13" x="111.05" y="176.86" width="267.72" height="8.18"/><rect class="cls-14" x="111.05" y="211.28" width="79.23" height="66.83"/><rect class="cls-15" x="202.1" y="211.28" width="176.67" height="66.83"/><path class="cls-15" d="M409.76,85.34a24.33,24.33,0,1,0-43.08,15.48,26.26,26.26,0,0,1,5.95,16.76h25.61a27.06,27.06,0,0,1,6.13-17A24.2,24.2,0,0,0,409.76,85.34Z" transform="translate(-145.97 -41.63)"/><path class="cls-16" d="M397.56,117.58H373.31a3.88,3.88,0,0,0-3.87,3.88h0a3.88,3.88,0,0,0,3.87,3.88h24.25a3.88,3.88,0,0,0,3.88-3.88h0A3.88,3.88,0,0,0,397.56,117.58Z" transform="translate(-145.97 -41.63)"/><path class="cls-17" d="M397.56,126.86H373.31a3.88,3.88,0,0,0-3.87,3.88h0a3.88,3.88,0,0,0,3.87,3.88h24.25a3.88,3.88,0,0,0,3.88-3.88h0A3.88,3.88,0,0,0,397.56,126.86Z" transform="translate(-145.97 -41.63)"/><path class="cls-18" d="M396.74,136.66a1.14,1.14,0,0,1,1.12,1.27,12.49,12.49,0,0,1-24.84,0,1.13,1.13,0,0,1,1.11-1.27Z" transform="translate(-145.97 -41.63)"/><path class="cls-19" d="M393.5,86.44h-.14a5,5,0,0,0-5,5v3.87h-5.89V91.42a5,5,0,0,0-5-5h-.14a5,5,0,0,0,0,10h4v21.19h1.11V96.39h5.89v21.19h1.11V96.39h4a5,5,0,0,0,0-10Zm-12.12,8.85h-4a3.87,3.87,0,0,1,0-7.74h.14a3.87,3.87,0,0,1,3.87,3.87Zm12.12,0h-4V91.42a3.87,3.87,0,0,1,3.87-3.87h.14a3.87,3.87,0,0,1,0,7.74Z" transform="translate(-145.97 -41.63)"/><rect class="cls-20" x="431.37" y="196.37" width="6.8" height="7.22"/><rect class="cls-21" x="429.08" y="189.06" width="11.36" height="7.31"/><rect class="cls-22" x="596.44" y="244.5" width="6.8" height="7.22" transform="translate(129.85 -356) rotate(37.58)"/><rect class="cls-23" x="556.88" y="245.61" width="6.8" height="7.22" transform="translate(-172.7 384.9) rotate(-40.79)"/><circle class="cls-15" cx="434.77" cy="231.3" r="29.84"/><circle class="cls-19" cx="580.74" cy="272.93" r="24.68" transform="translate(-192.81 97.55) rotate(-13.14)"/><path class="cls-24" d="M580.74,256.29a1.11,1.11,0,0,1-1.11-1.1v-4.56a1.11,1.11,0,1,1,2.21,0v4.56A1.1,1.1,0,0,1,580.74,256.29Z" transform="translate(-145.97 -41.63)"/><path class="cls-25" d="M603,274h-4.56a1.11,1.11,0,0,1,0-2.22H603a1.11,1.11,0,0,1,0,2.22Z" transform="translate(-145.97 -41.63)"/><path class="cls-26" d="M580.74,296.34a1.11,1.11,0,0,1-1.11-1.11v-4.56a1.11,1.11,0,0,1,2.21,0v4.56A1.11,1.11,0,0,1,580.74,296.34Z" transform="translate(-145.97 -41.63)"/><path class="cls-27" d="M563,274h-4.56a1.11,1.11,0,0,1,0-2.22H563a1.11,1.11,0,0,1,0,2.22Z" transform="translate(-145.97 -41.63)"/><path class="cls-28" d="M580.74,274h-.13a1.06,1.06,0,0,1-.74-.42l-8.4-10.68a1.11,1.11,0,0,1,.18-1.56,1.1,1.1,0,0,1,1.55.19l7.71,9.8,14.33-11.64a1.11,1.11,0,0,1,1.39,1.72l-15.2,12.35A1.08,1.08,0,0,1,580.74,274Z" transform="translate(-145.97 -41.63)"/><rect class="cls-29" x="548.38" y="116.28" width="12.09" height="64.41" transform="translate(770.51 552.22) rotate(-144.1)"/><rect class="cls-30" x="558.52" y="122.3" width="8.45" height="64.41" transform="matrix(-0.81, -0.59, 0.59, -0.81, 782.03, 568.01)"/><rect class="cls-31" x="542" y="110.19" width="8.45" height="64.41" transform="matrix(-0.81, -0.59, 0.59, -0.81, 759.24, 536.4)"/><rect class="cls-32" x="561.82" y="113.13" width="29" height="10.24" transform="translate(827.85 510.33) rotate(-144.1)"/><path class="cls-15" d="M571.15,94.55h29a0,0,0,0,1,0,0v17.14a4.46,4.46,0,0,1-4.46,4.46H575.61a4.46,4.46,0,0,1-4.46-4.46V94.55A0,0,0,0,1,571.15,94.55Z" transform="translate(852.31 492.46) rotate(-144.1)"/><polygon class="cls-33" points="371.12 158.44 401.48 141.56 377.67 124.32 371.12 158.44"/><polygon class="cls-34" points="374.13 142.73 371.12 158.44 385.09 150.67 374.13 142.73"/><rect class="cls-35" x="141.75" y="245.26" width="107.74" height="77.03" rx="4.13"/><path class="cls-36" d="M395.46,300.28V291a4.14,4.14,0,0,0-4.13-4.14H291.85a4.14,4.14,0,0,0-4.13,4.14v9.25Z" transform="translate(-145.97 -41.63)"/><path class="cls-37" d="M298.35,293.59a3,3,0,1,1-3-3A3,3,0,0,1,298.35,293.59Z" transform="translate(-145.97 -41.63)"/><path class="cls-38" d="M310,293.59a3,3,0,1,1-3-3A3,3,0,0,1,310,293.59Z" transform="translate(-145.97 -41.63)"/><path class="cls-39" d="M321.66,293.59a3,3,0,1,1-3-3A3,3,0,0,1,321.66,293.59Z" transform="translate(-145.97 -41.63)"/><path class="cls-19" d="M387.91,331.22l-15-15a1.51,1.51,0,0,0-2.14,0,1.5,1.5,0,0,0,0,2.14l13.93,13.94-13.93,13.94a1.52,1.52,0,0,0,1.07,2.59,1.52,1.52,0,0,0,1.07-.45l15-15A1.51,1.51,0,0,0,387.91,331.22Z" transform="translate(-145.97 -41.63)"/><path class="cls-19" d="M312.42,316.21a1.51,1.51,0,0,0-2.14,0l-15,15a1.51,1.51,0,0,0,0,2.14l15,15a1.52,1.52,0,0,0,1.07.45,1.48,1.48,0,0,0,1.07-.45,1.51,1.51,0,0,0,0-2.14l-13.94-13.94,13.94-13.94A1.51,1.51,0,0,0,312.42,316.21Z" transform="translate(-145.97 -41.63)"/><path class="cls-19" d="M337.79,312.91a1.51,1.51,0,0,0-2,.76L319,351.19a1.51,1.51,0,0,0,.77,2,1.49,1.49,0,0,0,.61.13,1.52,1.52,0,0,0,1.39-.89l16.82-37.52A1.52,1.52,0,0,0,337.79,312.91Z" transform="translate(-145.97 -41.63)"/><path class="cls-19" d="M335.54,337.34c-3.26,0-3.26,5.05,0,5.05S338.79,337.34,335.54,337.34Z" transform="translate(-145.97 -41.63)"/><path class="cls-19" d="M345.63,337.34c-3.25,0-3.25,5.05,0,5.05S348.89,337.34,345.63,337.34Z" transform="translate(-145.97 -41.63)"/><path class="cls-19" d="M355.73,337.34c-3.26,0-3.26,5.05,0,5.05S359,337.34,355.73,337.34Z" transform="translate(-145.97 -41.63)"/><path class="cls-15" d="M303.92,163.67l4.65-1.36a21.76,21.76,0,0,0,0-4.75l-4.65-1.37-.16-.05a16.27,16.27,0,0,0-.89-2.77l.1-.13,2.95-3.83a21.52,21.52,0,0,0-2.79-3.84l-4.57,1.62-.16.06a17,17,0,0,0-2.34-1.7v-.17l.13-4.85a21.07,21.07,0,0,0-4.51-1.47l-2.74,4-.1.14c-.48,0-1-.07-1.45-.07s-1,0-1.45.07l-.1-.14-2.73-4a21,21,0,0,0-4.52,1.47l.14,4.85v.17a17,17,0,0,0-2.34,1.7l-.16-.06-4.57-1.62a22,22,0,0,0-2.79,3.84l2.95,3.83.1.13a16.24,16.24,0,0,0-.88,2.77l-.17.05-4.64,1.37a20.22,20.22,0,0,0,0,4.75l4.64,1.36.17.05a16,16,0,0,0,.88,2.77l-.1.13-2.95,3.83a21.3,21.3,0,0,0,2.79,3.84l4.57-1.62.16-.06a17,17,0,0,0,2.34,1.7v.17l-.14,4.85a21,21,0,0,0,4.52,1.47l2.73-4,.1-.14c.48,0,1,.07,1.45.07s1,0,1.45-.07l.1.14,2.74,4a21.07,21.07,0,0,0,4.51-1.47l-.13-4.85v-.17a17,17,0,0,0,2.34-1.7l.16.06,4.57,1.62a20.83,20.83,0,0,0,2.79-3.84L303,166.62l-.1-.13a16,16,0,0,0,.89-2.77Zm-16.52,5a8.7,8.7,0,1,1,8.7-8.7A8.7,8.7,0,0,1,287.4,168.63Z" transform="translate(-145.97 -41.63)"/><path class="cls-15" d="M293.09,214.43l7.25-2.28a36.69,36.69,0,0,0-.59-5.69l-7.58-.73a27.6,27.6,0,0,0-.87-2.71l5.7-5a34.29,34.29,0,0,0-2.87-4.95l-7.22,2.42a25.32,25.32,0,0,0-1.89-2.12l3.15-6.91a34.21,34.21,0,0,0-4.62-3.38l-5.62,5.15c-.84-.43-1.7-.81-2.59-1.16l.07-7.61a34.58,34.58,0,0,0-5.6-1.18l-3,7c-.47,0-.94,0-1.42,0s-.95,0-1.42,0l-3-7a34.58,34.58,0,0,0-5.6,1.18l.07,7.61c-.89.35-1.76.73-2.6,1.16L247.17,183a34.21,34.21,0,0,0-4.62,3.38l3.15,6.91a27.35,27.35,0,0,0-1.9,2.12L236.58,193a35.18,35.18,0,0,0-2.86,4.95l5.7,5c-.33.88-.63,1.79-.88,2.71l-7.57.73a34.4,34.4,0,0,0-.59,5.69l7.25,2.28a26.33,26.33,0,0,0,.3,2.83L231.3,221a35.27,35.27,0,0,0,1.76,5.44l7.57-.86c.44.85.91,1.67,1.42,2.46l-4.52,6.12a34.26,34.26,0,0,0,3.83,4.24l6.55-3.86a27,27,0,0,0,2.3,1.67l-1.65,7.44a34.39,34.39,0,0,0,5.22,2.32l4.42-6.19c.91.24,1.84.44,2.78.59l1.52,7.45c.94.07,1.89.12,2.86.12s1.91-.05,2.86-.12l1.52-7.45c.94-.15,1.87-.35,2.78-.59l4.42,6.19a34.39,34.39,0,0,0,5.22-2.32l-1.65-7.44a26.8,26.8,0,0,0,2.29-1.67l6.56,3.86a34.26,34.26,0,0,0,3.83-4.24L288.66,228a24.93,24.93,0,0,0,1.42-2.46l7.58.86a34.19,34.19,0,0,0,1.75-5.44l-6.62-3.74A26.33,26.33,0,0,0,293.09,214.43Zm-27.73,12.62A14.11,14.11,0,1,1,279.47,213,14.1,14.1,0,0,1,265.36,227.05Z" transform="translate(-145.97 -41.63)"/><path class="cls-40" d="M443.47,107.53c-1.53,1.24-3.33,1.06-5.3,0v-6h5.3Z" transform="translate(-145.97 -41.63)"/><path class="cls-41" d="M486.19,161.83a6,6,0,0,0-3.88-7.44l-22.64-6.18-17.31-.31,1.84,5.84c0,5.69,4.24,10.31,9.47,10.31h22.22l2.56,19.61,7.61-1.56Z" transform="translate(-145.97 -41.63)"/><path class="cls-42" d="M493.68,190.14a4.12,4.12,0,0,0-5.57-3.68l-2.08.76,0-5.12-7.61,1.56,1,7.4a3.22,3.22,0,0,0,3,3.8l9.91-3.17a1.42,1.42,0,0,0,1.36-1.48Z" transform="translate(-145.97 -41.63)"/><path class="cls-43" d="M439.19,105.24a8.91,8.91,0,0,1-3.64-1.84c-1.38-1.35-1.77-3.39-2-5.31s-.4-3.76-.48-5.65a3.44,3.44,0,0,1,.32-1.94,3.13,3.13,0,0,1,2.23-1.17,17.05,17.05,0,0,1,10.27,1.35,34.81,34.81,0,0,0,.33,9.12c.26,1.52.58,3.2-.24,4.51a3.91,3.91,0,0,1-3.17,1.61A10.7,10.7,0,0,1,439.19,105.24Z" transform="translate(-145.97 -41.63)"/><path class="cls-44" d="M431.32,94.79a10.85,10.85,0,0,0,.32,4.91,9.12,9.12,0,0,0,1.08,2.24c.53.81.81,1.21,1.32,1.43a2.46,2.46,0,0,0,2.59-.6,4.8,4.8,0,0,0,1.27-2.54c.15-.71-.61-1.18-1.17-1.62a4.91,4.91,0,0,1-1.49-1.52,2.05,2.05,0,0,1,0-1.87,1.59,1.59,0,0,1,1.6-.8A1.44,1.44,0,0,1,438,95.77c.29-.24.68-.46,1-.7A3.33,3.33,0,0,1,438,94a3.27,3.27,0,0,1-.48-1.4c.15-1.44,7.35-1.85,8.33-1.9C449.47,88,450,87,449.8,86.62c-.34-.67-2.6.53-6.42.22-3.36-.27-3.87-1.47-6-1a7.92,7.92,0,0,0-4.76,3.68A8.87,8.87,0,0,0,431.32,94.79Z" transform="translate(-145.97 -41.63)"/><path class="cls-15" d="M449.3,108l-5.83-.51h-5.3l-8.48.86-2.48,40.41,25.78-.9-2.68-39.66A5.47,5.47,0,0,0,449.3,108Z" transform="translate(-145.97 -41.63)"/><path class="cls-15" d="M457.61,142.81l-3.74-30.36a5.05,5.05,0,0,0-3.56-4.21L453,147.9l3.05-.11Z" transform="translate(-145.97 -41.63)"/><path class="cls-15" d="M429.69,108.39l-1.44.24a4.12,4.12,0,0,0-3.27,2.89L418.67,133A4.82,4.82,0,0,0,421,138.6L436.9,147l2.28-3-13.13-10.71,2.65-8.7Z" transform="translate(-145.97 -41.63)"/><path class="cls-45" d="M439.18,143.94a9.28,9.28,0,0,1,4,.3l-.46,2.26A4.62,4.62,0,0,1,439,147a1.7,1.7,0,0,1-2.05,0Z" transform="translate(-145.97 -41.63)"/><polygon class="cls-46" points="293.32 106.58 316.25 106.58 323.61 89.46 300.68 89.46 293.32 106.58"/><path class="cls-47" d="M472.92,161.83a5.92,5.92,0,0,0-4.23-7.44l-24.64-6.18-16.84.59v4.94a10.31,10.31,0,0,0,10.31,10.31h24.19l-3.07,20.13h7.57Z" transform="translate(-145.97 -41.63)"/><path class="cls-48" d="M469.12,189.06h-4.37l1.46-4.88h-7.57l-1.05,6.88a3.3,3.3,0,0,0,3.26,3.8H472a1.47,1.47,0,0,0,1.47-1.47A4.33,4.33,0,0,0,469.12,189.06Z" transform="translate(-145.97 -41.63)"/><path class="cls-49" d="M190.67,378.75l-16.74-.39c7.57,21.65,12.76,41.39,12.81,57h7.58C196.22,420.26,194.14,400.36,190.67,378.75Z" transform="translate(-145.97 -41.63)"/><path class="cls-50" d="M198.47,440.22h-4.38l.23-4.88h-7.58l.7,6.89a4.51,4.51,0,0,0,4.24,3.8h9.67a1.11,1.11,0,0,0,1.1-1.48C201.84,442.16,201.48,440.22,198.47,440.22Z" transform="translate(-145.97 -41.63)"/><path class="cls-51" d="M184,380.24l-16.63-.39c2.06,21.65,2.23,41.39-1.69,57h7.58C179,421.76,182,401.85,184,380.24Z" transform="translate(-145.97 -41.63)"/><path class="cls-52" d="M176.15,441.72h-4.38l1.47-4.89h-7.58l-1,6.89a3.31,3.31,0,0,0,3.27,3.8H179a1.47,1.47,0,0,0,1.47-1.47A4.33,4.33,0,0,0,176.15,441.72Z" transform="translate(-145.97 -41.63)"/><path class="cls-15" d="M165.58,347.7l7.49-1.25,5.29-.73h5.11l6.08-17.18-8.88-19.62,3.82-2.31,11.65,20.57a5.47,5.47,0,0,1,.49,4.26l-7.26,24.64,1.2,22.67s-12.07,4-23.22,1.1l-1.77-20.45L150.45,345a8.61,8.61,0,0,1-2.65-5.71l-1.18-19.57,4.42.37,3.6,18.43Z" transform="translate(-145.97 -41.63)"/><path class="cls-53" d="M180.67,308.92l-1.09-2.05a3.44,3.44,0,0,1,.52-4l4.34-4.63.87,2.13a3.74,3.74,0,0,1-.81,4l-.75.74.74,1.43Z" transform="translate(-145.97 -41.63)"/><path class="cls-54" d="M151,320.06v-.37a3.51,3.51,0,0,1,1-2.47l1-1-3.45-5.53-2,1.72a4.56,4.56,0,0,0-1.53,4.37l.56,2.89Z" transform="translate(-145.97 -41.63)"/><path class="cls-40" d="M178.36,346.45c-1.52,1.24-3.32,1.06-5.29,0v-6h5.29Z" transform="translate(-145.97 -41.63)"/><path class="cls-55" d="M176.74,344.67a8.86,8.86,0,0,1-4.07-.25c-1.8-.7-3-2.43-3.93-4.09s-1.84-3.31-2.66-5a3.36,3.36,0,0,1-.48-1.91,3.13,3.13,0,0,1,1.59-2,17.13,17.13,0,0,1,10-2.81,35.08,35.08,0,0,0,3.9,8.26c.83,1.29,1.8,2.71,1.55,4.23a3.86,3.86,0,0,1-2.28,2.73A10.66,10.66,0,0,1,176.74,344.67Z" transform="translate(-145.97 -41.63)"/><path class="cls-56" d="M165.34,335.81a10.16,10.16,0,0,0,1.57,5.08,10.35,10.35,0,0,0,2.11,2.28c1.09.92,1.58,1,1.92,1.06a3.62,3.62,0,0,0,1.58-.29,2.58,2.58,0,0,0,.91-.5c.66-.64.38-1.79.2-2.74-.13-.69-1-.81-1.69-1A4.7,4.7,0,0,1,170,339a1.89,1.89,0,0,1-.69-1.67,1.61,1.61,0,0,1,1.17-1.33,1.4,1.4,0,0,1,1.57.74c.18-.33.45-.68.62-1a1.58,1.58,0,0,1-1.28-.59c0-.09-.23-.42,0-1.28a5.09,5.09,0,0,1,1.41-2.25c.43-.19,6-2.7,5.62-4.26-.3-1.21-4.12-1.63-7.09-.7a8.54,8.54,0,0,0-4.72,3.38A9.06,9.06,0,0,0,165.34,335.81Z" transform="translate(-145.97 -41.63)"/><path class="cls-57" d="M192.3,258.35l-43.08,42.91a11.6,11.6,0,0,0,.73,16.8,11.83,11.83,0,0,0,16.23-.94l41.19-40.94a21.45,21.45,0,0,0,27-15.16,1.35,1.35,0,0,0-1.93-1.51l-13.84,7.28-11.9-7.51.56-14.06,13.84-7.28a1.34,1.34,0,0,0-.15-2.44,21.45,21.45,0,0,0-28.63,22.85Zm-38.65,46.88a5.62,5.62,0,1,1,.15,7.95A5.61,5.61,0,0,1,153.65,305.23Z" transform="translate(-145.97 -41.63)"/><path class="cls-58" d="M368,351l-24.9-19.75s-3.78-4.08-6.88-5.63l-4.31-3a1,1,0,0,0-1.38.27h0a1,1,0,0,0,.18,1.27l4,3.56s-1.35,6.81,5.91,6.63l24.76,22.92h2.08l1.6-5.17Z" transform="translate(-145.97 -41.63)"/><path class="cls-40" d="M373.9,351.08a4.17,4.17,0,0,0,5,.43v-5.32h-5Z" transform="translate(-145.97 -41.63)"/><path class="cls-59" d="M372,406.58l-8.91.82a245.24,245.24,0,0,0,2.21,35.77,3.49,3.49,0,0,0,3.5-.2h0C368.25,426.09,372,406.58,372,406.58Z" transform="translate(-145.97 -41.63)"/><path class="cls-60" d="M365.33,443.17a35.89,35.89,0,0,0-9.3,4.22h13.8c-.4-1.46-.72-2.94-1-4.43h0A3.49,3.49,0,0,1,365.33,443.17Z" transform="translate(-145.97 -41.63)"/><path class="cls-61" d="M385.82,406.58l-8.91.82a134.32,134.32,0,0,0,4.4,35.77,3.51,3.51,0,0,0,3.51-.2h0C383.67,426.56,385.82,406.58,385.82,406.58Z" transform="translate(-145.97 -41.63)"/><path class="cls-62" d="M381.31,443.17a35.89,35.89,0,0,0-9.3,4.22h13.81c-.41-1.46-.73-2.94-1-4.43h0A3.51,3.51,0,0,1,381.31,443.17Z" transform="translate(-145.97 -41.63)"/><path class="cls-63" d="M385.75,383.66,388,407.57s-15.69,3.34-26.74,0L365,382.79Z" transform="translate(-145.97 -41.63)"/><path class="cls-64" d="M377.4,349a8.19,8.19,0,0,0,3.4-1.72c1.29-1.26,1.65-3.17,1.88-5s.36-3.53.44-5.29a3.2,3.2,0,0,0-.3-1.82,2.93,2.93,0,0,0-2.09-1.09,16,16,0,0,0-9.61,1.26,32.58,32.58,0,0,1-.3,8.54c-.24,1.42-.55,3,.22,4.21a3.65,3.65,0,0,0,3,1.51A10.18,10.18,0,0,0,377.4,349Z" transform="translate(-145.97 -41.63)"/><path class="cls-65" d="M387.69,343.52c-.66-.37-1.33.42-2,.08s-.65-1.63-.83-2.94a13.43,13.43,0,0,0-1.91-4.85,8.93,8.93,0,0,0-5.49-4c-3.66-.68-7.77,1.61-7.73,3.26,0,.69.78,1.26,1.51,1.65a12.65,12.65,0,0,1,5.69,2.8,6.08,6.08,0,0,1,.89,1.27,6,6,0,0,1,.51,1.92c.19,1.35.39,2.7.59,4.05l.87,5.62a13.42,13.42,0,0,0,.71,3,6.89,6.89,0,0,0,4.55,4,5.53,5.53,0,0,0,4.29-.52,4,4,0,0,0,1.92-3.74c-.29-2.32-2.83-3.87-3.13-6.18a12.4,12.4,0,0,1,.25-2.84C388.51,345,388.33,343.88,387.69,343.52Z" transform="translate(-145.97 -41.63)"/><path class="cls-15" d="M368,351s4.83,0,5.95.09a6.78,6.78,0,0,0,5,.43l8.08,3.26-1.18,28.89s-13,1.75-20.71-.87l.58-16.49s-6.24-4.83,1-10Z" transform="translate(-145.97 -41.63)"/><polygon class="cls-19" points="226.92 318.78 223.09 337.24 234.54 340.14 238.48 321.98 226.92 318.78"/><path class="cls-66" d="M386.93,354.77s-4.45,2.37-2,8.67l1.29,13.18-12.29-2-3.48-2.32.45-2.18s-5.31,1-1.17,5.67l3.19,1.81,14.29,3.07a3.57,3.57,0,0,0,4.33-3.53C391.42,370.28,390.72,357.56,386.93,354.77Z" transform="translate(-145.97 -41.63)"/><text class="cls-67" transform="translate(266.49 239.92)">ACM<tspan x="0" y="24">TCET</tspan></text></svg>